<svg xmlns="http://www.w3.org/2000/svg" xmlns:xlink="http://www.w3.org/1999/xlink" width="1200" zoomAndPan="magnify" viewBox="0 0 900 225" height="300" preserveAspectRatio="xMidYMid meet" version="1.0"><defs><g/><clipPath id="732e777313"><path d="M 6 8 L 179 8 L 179 224.976562 L 6 224.976562 Z M 6 8 " clip-rule="nonzero"/></clipPath></defs><rect x="-90" width="1080" fill="#ffffff" y="-22.5" height="270" fill-opacity="1"/><rect x="-90" width="1080" fill="#fefefe" y="-22.5" height="270" fill-opacity="1"/><path fill="#f26d85" d="M 177.953125 55.109375 C 169.601562 45.617188 157.726562 44.378906 147.136719 46.292969 C 147.089844 45.335938 146.972656 44.355469 146.8125 43.351562 C 143.800781 26.464844 128.078125 8.898438 100.949219 10.226562 C 74.777344 11.535156 61.597656 28.539062 60.945312 39.644531 C 60.898438 40.203125 60.875 40.785156 60.898438 41.347656 C 56.1875 39.921875 50.9375 39.527344 45.199219 40.15625 C 34.75 41.300781 26.675781 45.636719 21.21875 53.054688 C 14.96875 61.570312 13.589844 72.675781 15.015625 79.90625 C 16.625 88.046875 21.078125 103.140625 33.09375 112.5625 C 33.140625 112.609375 33.160156 112.632812 33.230469 112.632812 C 40.417969 129.59375 62.25 140.113281 77.390625 144.265625 C 83.992188 146.085938 93.742188 147.695312 103.820312 147.695312 C 106.734375 147.695312 109.699219 147.578125 112.589844 147.273438 C 141.914062 144.21875 162.578125 131.832031 169.765625 113.195312 C 169.859375 113.195312 169.972656 113.148438 170.066406 113.101562 C 178.417969 108.179688 184.507812 98.472656 186.304688 87.160156 C 188.285156 75.078125 185.230469 63.414062 177.953125 55.109375 Z M 177.953125 55.109375 " fill-opacity="1" fill-rule="nonzero"/><g clip-path="url(#732e777313)"><path fill="#2e3c3f" d="M 169.996094 53.640625 C 161.648438 44.121094 149.75 42.933594 139.160156 44.890625 C 139.113281 43.914062 138.996094 42.886719 138.808594 41.8125 C 135.800781 24.996094 120.21875 7.476562 93.089844 8.804688 C 67.007812 10.089844 53.875 27.046875 53.199219 38.105469 C 53.152344 38.734375 53.152344 39.363281 53.152344 39.992188 C 48.417969 38.523438 43.121094 38.105469 37.335938 38.757812 C 26.910156 39.898438 18.886719 44.214844 13.449219 51.585938 C 7.246094 60.03125 5.871094 71.089844 7.292969 78.296875 C 8.878906 86.4375 13.335938 101.460938 25.324219 110.882812 C 25.371094 110.929688 25.417969 110.90625 25.488281 110.929688 C 29.171875 119.679688 36.777344 126.722656 45.386719 132.066406 C 36.683594 134.351562 29.5 140.183594 25.066406 148.695312 C 20.191406 158.074219 19.492188 169.363281 23.25 178.160156 C 29.054688 191.78125 39.671875 197.707031 59.125 197.707031 C 61.550781 197.707031 64.09375 197.613281 66.800781 197.425781 C 70.671875 197.171875 74.636719 196.378906 77.832031 195.746094 C 78.835938 195.539062 79.699219 195.375 80.46875 195.234375 C 80.75 195.257812 81.027344 195.28125 81.285156 195.28125 C 81.636719 195.28125 81.960938 195.257812 82.242188 195.234375 C 86.742188 194.699219 89.777344 194.019531 94.183594 189.121094 C 95.234375 187.980469 96.027344 186.554688 96.609375 185.015625 C 96.632812 186.976562 96.65625 188.890625 96.609375 190.707031 C 96.496094 196.796875 96.074219 202.535156 95.585938 207.527344 C 94.253906 204.867188 91.152344 202.347656 89.613281 201.324219 C 87.492188 199.921875 84.316406 199.621094 82.078125 200.621094 C 80.46875 201.347656 79.488281 202.652344 79.234375 204.378906 C 79.023438 205.894531 79.464844 207.457031 80.5625 208.902344 C 82.429688 211.375 85.671875 212.960938 87.933594 213.265625 C 88.65625 213.359375 89.308594 213.40625 89.917969 213.40625 C 92.527344 213.40625 94.183594 212.636719 95.117188 211.9375 C 94.253906 219.285156 93.34375 224.066406 93.320312 224.136719 C 93.253906 224.53125 93.507812 224.90625 93.882812 224.976562 C 93.929688 224.976562 93.976562 225 94.023438 225 C 94.371094 225 94.652344 224.765625 94.722656 224.417969 C 94.746094 224.253906 97.683594 208.925781 98.035156 190.730469 C 98.058594 189.867188 98.058594 188.960938 98.058594 188.050781 C 99.175781 190.078125 100.972656 191.59375 103.421875 192.480469 C 104.496094 192.878906 105.617188 193.066406 106.710938 193.066406 C 108.4375 193.066406 110.117188 192.597656 111.679688 191.640625 C 112.519531 191.128906 113.3125 190.5 114.011719 189.753906 C 114.035156 189.753906 114.035156 189.753906 114.058594 189.777344 C 114.199219 189.777344 114.550781 189.84375 115.0625 189.9375 C 117 190.265625 121.40625 191.035156 126.9375 191.035156 C 130.25 191.035156 133.980469 190.753906 137.804688 189.960938 C 150.402344 187.304688 157.75 179.207031 159.664062 165.867188 C 160.433594 160.476562 158.289062 144.660156 139.765625 135.378906 C 149.121094 130.269531 157.542969 122.6875 161.808594 111.492188 C 161.925781 111.492188 162.042969 111.46875 162.136719 111.398438 C 170.464844 106.5 176.507812 96.839844 178.324219 85.550781 C 180.261719 73.539062 177.230469 61.898438 169.996094 53.640625 Z M 94.699219 210.398438 C 94.371094 210.769531 92.550781 212.472656 88.097656 211.867188 C 86.183594 211.609375 83.316406 210.1875 81.683594 208.0625 C 80.820312 206.921875 80.46875 205.753906 80.632812 204.613281 C 80.820312 203.375 81.496094 202.464844 82.636719 201.953125 C 83.316406 201.648438 84.15625 201.484375 85.019531 201.484375 C 86.347656 201.484375 87.769531 201.835938 88.796875 202.535156 C 90.941406 203.957031 95.351562 207.855469 94.699219 210.398438 Z M 54.644531 38.175781 C 55.277344 27.628906 67.941406 11.464844 93.160156 10.226562 C 119.355469 8.96875 134.496094 25.835938 137.386719 42.070312 C 137.574219 43.144531 137.691406 44.167969 137.714844 45.171875 C 130.925781 46.617188 124.765625 49.277344 120.589844 51.726562 C 114.550781 55.273438 108.089844 62.550781 108.484375 66.984375 C 108.625 68.523438 109.535156 69.640625 111.121094 70.25 C 111.5625 70.410156 112.078125 70.503906 112.636719 70.550781 C 105.730469 73.328125 99.832031 77.410156 94.976562 82.121094 C 91.664062 76.40625 87.398438 71.671875 82.5 68.847656 C 78.976562 66.820312 74.496094 65.511719 69.621094 64.953125 C 70.53125 65.023438 71.324219 64.859375 71.953125 64.488281 C 73.003906 63.855469 73.519531 62.667969 73.425781 61.105469 C 73.308594 59.167969 70.71875 51.65625 63.835938 45.824219 C 61.0625 43.492188 57.980469 41.695312 54.597656 40.484375 C 54.597656 39.714844 54.597656 38.945312 54.644531 38.175781 Z M 111.609375 68.871094 C 110.539062 68.476562 110 67.824219 109.90625 66.84375 C 109.605469 63.320312 115.132812 56.578125 121.316406 52.964844 C 125.328125 50.605469 131.203125 48.066406 137.714844 46.640625 C 137.433594 53.894531 133.234375 59.027344 129.410156 62.246094 C 122.714844 67.824219 114.410156 69.898438 111.609375 68.871094 Z M 99.410156 119.515625 C 96.609375 128.660156 91.058594 131.433594 87.164062 131.015625 C 82.683594 130.546875 79.441406 126.351562 78.882812 120.285156 C 78.066406 111.558594 83.246094 96.210938 94.675781 84.382812 C 100.390625 95.113281 102.675781 108.855469 99.410156 119.515625 Z M 64.488281 61.429688 C 59.941406 58.65625 55.414062 50.652344 54.714844 42.023438 C 57.726562 43.1875 60.453125 44.820312 62.925781 46.898438 C 69.527344 52.472656 71.929688 59.636719 72.023438 61.152344 C 72.09375 62.175781 71.816406 62.855469 71.253906 63.203125 C 70.042969 63.949219 67.523438 63.273438 64.488281 61.429688 Z M 8.691406 78.015625 C 7.339844 71.113281 8.644531 60.519531 14.617188 52.402344 C 19.796875 45.359375 27.492188 41.230469 37.5 40.132812 C 43.285156 39.503906 48.535156 39.945312 53.222656 41.488281 C 53.757812 50.210938 58.097656 59.214844 63.742188 62.644531 C 65.984375 63.996094 67.917969 64.765625 69.480469 64.90625 C 61.386719 64.019531 52.242188 65.140625 44.640625 68.335938 C 37.152344 71.484375 27.539062 78.039062 24.15625 91.3125 C 22.570312 97.519531 22.875 103.1875 24.507812 108.292969 C 14.175781 99.152344 10.160156 85.550781 8.691406 78.015625 Z M 93.089844 188.167969 C 88.914062 192.785156 86.300781 193.296875 82.03125 193.8125 C 81.890625 193.835938 81.730469 193.835938 81.589844 193.835938 C 81.449219 193.71875 81.238281 193.648438 81.027344 193.695312 C 80.84375 193.71875 80.585938 193.765625 80.375 193.8125 C 78.671875 193.625 76.785156 192.878906 75.5 191.386719 C 73.75 189.378906 73.332031 186.394531 74.265625 182.707031 C 75.5 177.855469 78.578125 175.289062 80.914062 173.984375 C 83.105469 172.769531 85.625 172.140625 88.027344 172.140625 C 89.308594 172.140625 90.546875 172.328125 91.6875 172.675781 C 94.183594 173.46875 95.210938 175.59375 95.65625 177.203125 C 96.65625 180.816406 95.5625 185.414062 93.089844 188.167969 Z M 92.132812 171.324219 C 88.46875 170.15625 83.898438 170.695312 80.210938 172.746094 C 79 173.421875 77.601562 174.425781 76.339844 175.824219 C 69.433594 179.488281 56.488281 178.742188 51.449219 175.453125 C 48.511719 173.539062 46.621094 170.8125 46.015625 167.546875 C 45.363281 164.09375 46.25 160.335938 48.464844 157.28125 C 48.699219 156.953125 48.628906 156.511719 48.300781 156.277344 C 47.976562 156.042969 47.53125 156.113281 47.296875 156.441406 C 44.847656 159.824219 43.867188 163.976562 44.59375 167.824219 C 45.269531 171.488281 47.367188 174.542969 50.65625 176.6875 C 53.757812 178.695312 58.9375 179.722656 64.140625 179.722656 C 67.871094 179.722656 71.628906 179.183594 74.660156 178.113281 C 73.9375 179.324219 73.308594 180.726562 72.863281 182.382812 C 71.511719 187.628906 72.957031 190.707031 74.402344 192.363281 C 75.21875 193.296875 76.199219 193.972656 77.226562 194.441406 C 74.125 195.070312 70.320312 195.792969 66.660156 196.050781 C 46.667969 197.378906 31.855469 194.765625 24.554688 177.644531 C 20.960938 169.222656 21.636719 158.402344 26.328125 149.398438 C 30.804688 140.8125 38.152344 135.027344 47.066406 133.136719 C 54.621094 137.59375 62.765625 140.742188 69.574219 142.609375 C 75.59375 144.265625 84.226562 145.734375 93.34375 145.992188 C 93.648438 147.996094 95.351562 161.082031 96.191406 174.753906 C 95.234375 173.050781 93.882812 171.882812 92.132812 171.324219 Z M 110.933594 190.453125 C 108.765625 191.757812 106.292969 192.015625 103.914062 191.152344 C 98.359375 189.144531 97.777344 184.082031 98.265625 180.164062 C 98.96875 174.613281 102.675781 170.4375 107.714844 169.527344 C 108.953125 169.292969 111.773438 169.972656 113.988281 172.09375 C 115.53125 173.5625 117.230469 176.222656 116.648438 180.445312 C 116.042969 184.992188 113.941406 188.632812 110.933594 190.453125 Z M 138.484375 136.308594 C 156.886719 145.152344 159.011719 160.5 158.265625 165.65625 C 156.421875 178.507812 149.65625 185.996094 137.527344 188.539062 C 127.613281 190.617188 118.351562 189.027344 115.296875 188.515625 C 115.203125 188.492188 115.15625 188.492188 115.0625 188.46875 C 116.601562 186.371094 117.652344 183.6875 118.070312 180.65625 C 118.492188 177.574219 117.863281 175.242188 116.882812 173.492188 C 117.863281 173.539062 118.863281 173.585938 119.914062 173.585938 C 125.140625 173.585938 130.832031 172.816406 133.375 169.292969 C 135.101562 166.914062 135.777344 164.347656 135.289062 161.875 C 134.75 159.054688 132.746094 156.441406 129.6875 154.503906 C 129.363281 154.296875 128.917969 154.390625 128.6875 154.738281 C 128.476562 155.066406 128.570312 155.507812 128.917969 155.742188 C 131.648438 157.46875 133.398438 159.753906 133.863281 162.179688 C 134.261719 164.28125 133.699219 166.402344 132.207031 168.476562 C 129.058594 172.816406 119.191406 172.234375 115.949219 172.046875 C 115.925781 172.046875 115.902344 172.046875 115.878906 172.046875 C 115.597656 171.695312 115.296875 171.371094 115.015625 171.089844 C 112.542969 168.734375 109.300781 167.800781 107.480469 168.128906 C 102.933594 168.96875 99.386719 172.140625 97.730469 176.550781 C 97.496094 172.28125 97.171875 168.011719 96.820312 164.070312 C 97.03125 164.1875 97.265625 164.28125 97.496094 164.347656 C 98.199219 164.582031 99.105469 164.746094 100.179688 164.746094 C 102.1875 164.746094 104.753906 164.210938 107.550781 162.714844 C 110.28125 161.269531 111.960938 158.425781 111.539062 155.953125 C 111.238281 154.0625 109.746094 152.777344 107.480469 152.40625 C 103.820312 151.824219 99.269531 154.902344 96.820312 158.121094 C 96.65625 158.332031 96.472656 158.585938 96.285156 158.867188 C 95.632812 152.476562 95 147.578125 94.769531 145.945312 C 95.164062 145.945312 95.539062 145.96875 95.933594 145.96875 C 98.851562 145.96875 101.789062 145.828125 104.683594 145.523438 C 112.425781 144.707031 125.980469 142.445312 138.25 136.125 C 138.34375 136.21875 138.390625 136.265625 138.484375 136.308594 Z M 97.988281 159.007812 C 100.039062 156.324219 103.679688 153.78125 106.546875 153.78125 C 106.78125 153.78125 107.039062 153.804688 107.25 153.828125 C 108.90625 154.085938 109.90625 154.902344 110.117188 156.183594 C 110.421875 158.027344 109.019531 160.289062 106.875 161.433594 C 103.003906 163.484375 99.644531 163.554688 97.964844 162.972656 C 97.335938 162.761719 96.890625 162.4375 96.726562 162.109375 C 96.519531 161.667969 96.820312 160.523438 97.988281 159.007812 Z M 104.566406 144.125 C 91.804688 145.453125 78.300781 143.472656 69.925781 141.1875 C 50.167969 135.75 18.535156 119.1875 25.558594 91.664062 C 28.800781 78.949219 38.015625 72.699219 45.199219 69.664062 C 51.285156 67.097656 57.773438 66.027344 63.742188 66.027344 C 71.046875 66.027344 77.601562 67.613281 81.796875 70.0625 C 86.582031 72.835938 90.757812 77.503906 93.976562 83.125 C 82.03125 95.324219 76.621094 111.351562 77.460938 120.425781 C 78.089844 127.191406 81.84375 131.925781 87.023438 132.460938 C 91.503906 132.929688 97.730469 129.917969 100.785156 119.933594 C 104.191406 108.832031 101.71875 94.484375 95.703125 83.359375 C 102.28125 76.898438 110.816406 71.625 121.359375 69.316406 C 134.84375 66.351562 147.089844 69.640625 154.976562 78.296875 C 162.394531 86.460938 164.726562 97.890625 161.203125 108.902344 C 152.457031 136.265625 118.679688 142.65625 104.566406 144.125 Z M 176.902344 85.339844 C 175.246094 95.652344 169.90625 104.492188 162.554688 109.367188 L 162.554688 109.34375 C 166.242188 97.84375 163.792969 85.878906 156.023438 77.339844 C 148.421875 68.988281 136.96875 65.417969 124.253906 67.332031 C 126.351562 66.234375 128.429688 64.90625 130.320312 63.320312 C 134.449219 59.867188 138.996094 54.269531 139.160156 46.316406 C 149.398438 44.378906 160.898438 45.453125 168.902344 54.574219 C 175.851562 62.527344 178.769531 73.722656 176.902344 85.339844 Z M 176.902344 85.339844 " fill-opacity="1" fill-rule="nonzero"/></g><path fill="#2e3c3f" d="M 98.335938 57.535156 C 98.523438 57.675781 98.710938 57.792969 98.898438 57.886719 C 98.59375 63.039062 98.058594 68.195312 97.3125 73.28125 C 97.265625 73.675781 97.519531 74.050781 97.917969 74.097656 C 97.964844 74.097656 97.988281 74.097656 98.035156 74.097656 C 98.382812 74.097656 98.6875 73.839844 98.757812 73.492188 C 99.503906 68.453125 100.039062 63.34375 100.34375 58.234375 C 100.601562 58.257812 100.878906 58.234375 101.160156 58.1875 C 102.1875 58 103.050781 57.441406 103.585938 56.648438 C 103.796875 56.324219 103.703125 55.878906 103.375 55.644531 C 103.050781 55.4375 102.605469 55.527344 102.371094 55.855469 C 102.070312 56.324219 101.535156 56.648438 100.902344 56.765625 C 100.738281 56.789062 100.578125 56.8125 100.414062 56.8125 C 100.460938 55.761719 100.507812 54.691406 100.554688 53.640625 C 100.601562 52.285156 100.015625 51.820312 99.550781 51.65625 C 98.945312 51.445312 98.289062 51.703125 97.777344 52.308594 C 97.148438 53.035156 96.867188 54.035156 96.984375 55.0625 C 97.054688 56.066406 97.566406 56.976562 98.335938 57.535156 Z M 98.851562 53.195312 C 98.945312 53.078125 99.039062 53.035156 99.039062 52.988281 C 99.0625 53.054688 99.105469 53.21875 99.105469 53.570312 C 99.082031 54.457031 99.039062 55.34375 98.992188 56.207031 C 98.664062 55.878906 98.429688 55.390625 98.382812 54.851562 C 98.3125 54.246094 98.476562 53.640625 98.851562 53.195312 Z M 98.851562 53.195312 " fill-opacity="1" fill-rule="nonzero"/><path fill="#2e3c3f" d="M 89.964844 46.96875 C 89.332031 47.132812 88.84375 47.691406 88.679688 48.460938 C 88.46875 49.558594 88.914062 50.746094 89.800781 51.421875 C 90.148438 51.703125 90.59375 51.890625 91.035156 51.984375 C 91.503906 57.722656 91.152344 63.53125 90.828125 69.175781 C 90.804688 69.570312 91.105469 69.921875 91.503906 69.945312 C 91.527344 69.945312 91.527344 69.945312 91.550781 69.945312 C 91.921875 69.945312 92.25 69.640625 92.273438 69.269531 C 92.597656 63.578125 92.949219 57.746094 92.503906 51.9375 C 92.667969 51.890625 92.832031 51.820312 92.972656 51.75 C 93.484375 51.492188 93.859375 51.121094 94.207031 50.792969 C 94.441406 50.582031 94.675781 50.351562 94.933594 50.1875 C 95.257812 49.976562 95.375 49.535156 95.140625 49.183594 C 94.933594 48.859375 94.488281 48.765625 94.136719 48.972656 C 93.789062 49.183594 93.507812 49.464844 93.207031 49.746094 C 92.902344 50.023438 92.644531 50.28125 92.34375 50.445312 C 92.296875 50.046875 92.25 49.652344 92.203125 49.253906 C 92.109375 48.554688 91.78125 47.644531 91.152344 47.203125 C 90.78125 46.945312 90.382812 46.875 89.964844 46.96875 Z M 90.664062 50.28125 C 90.21875 49.929688 89.988281 49.300781 90.078125 48.742188 C 90.125 48.507812 90.242188 48.367188 90.289062 48.367188 C 90.40625 48.414062 90.664062 48.835938 90.734375 49.417969 C 90.78125 49.746094 90.804688 50.070312 90.847656 50.398438 C 90.804688 50.375 90.734375 50.328125 90.664062 50.28125 Z M 90.664062 50.28125 " fill-opacity="1" fill-rule="nonzero"/><path fill="#2e3c3f" d="M 106.011719 58.09375 C 105.21875 60.148438 104.425781 62.269531 103.84375 64.464844 C 103.75 64.835938 103.984375 65.234375 104.355469 65.351562 C 104.425781 65.375 104.472656 65.375 104.542969 65.375 C 104.867188 65.375 105.148438 65.164062 105.242188 64.835938 C 105.800781 62.738281 106.59375 60.636719 107.363281 58.632812 C 107.832031 57.417969 108.296875 56.207031 108.71875 54.96875 C 109.300781 53.265625 109.976562 51.027344 110.234375 48.578125 C 110.398438 48.578125 110.5625 48.578125 110.722656 48.554688 C 112.519531 48.273438 113.476562 46.546875 114.175781 44.914062 C 114.339844 44.542969 114.152344 44.121094 113.804688 43.984375 C 113.429688 43.820312 113.011719 44.003906 112.871094 44.355469 C 112.332031 45.636719 111.632812 46.945312 110.539062 47.132812 C 110.492188 47.132812 110.445312 47.15625 110.375 47.15625 C 110.398438 46.222656 110.375 45.289062 110.234375 44.332031 C 110.1875 44.050781 110.023438 43.144531 109.371094 42.675781 C 109.066406 42.464844 108.71875 42.371094 108.34375 42.441406 C 107.714844 42.558594 107.25 43.074219 107.0625 43.890625 C 106.78125 45.054688 106.992188 46.246094 107.621094 47.15625 C 107.949219 47.621094 108.367188 47.972656 108.859375 48.226562 C 108.625 50.605469 107.949219 52.847656 107.386719 54.527344 C 106.921875 55.691406 106.457031 56.882812 106.011719 58.09375 Z M 108.742188 46.292969 C 108.34375 45.730469 108.226562 44.9375 108.414062 44.167969 C 108.460938 43.984375 108.53125 43.867188 108.507812 43.820312 C 108.578125 43.914062 108.71875 44.144531 108.765625 44.472656 C 108.859375 45.125 108.90625 45.777344 108.90625 46.457031 C 108.835938 46.410156 108.789062 46.339844 108.742188 46.292969 Z M 108.742188 46.292969 " fill-opacity="1" fill-rule="nonzero"/><path fill="#2e3c3f" d="M 99.785156 43.28125 C 99.621094 45.242188 99.246094 47.15625 98.6875 49.019531 C 98.570312 49.394531 98.78125 49.789062 99.175781 49.90625 C 99.246094 49.929688 99.316406 49.929688 99.386719 49.929688 C 99.691406 49.929688 99.992188 49.722656 100.085938 49.417969 C 100.714844 47.273438 101.113281 45.078125 101.277344 42.839844 C 101.765625 42.464844 102.070312 41.90625 102.304688 41.417969 L 102.488281 41.066406 C 102.933594 40.296875 103.609375 39.644531 104.378906 39.222656 C 104.730469 39.039062 104.867188 38.59375 104.683594 38.242188 C 104.496094 37.894531 104.050781 37.777344 103.703125 37.941406 C 102.699219 38.476562 101.835938 39.316406 101.253906 40.296875 C 101.207031 40.109375 101.160156 39.921875 101.066406 39.761719 C 100.714844 39.039062 99.992188 38.59375 99.292969 38.710938 C 98.59375 38.804688 98.035156 39.410156 97.824219 40.226562 C 97.636719 41.042969 97.824219 41.882812 98.3125 42.464844 C 98.710938 42.957031 99.246094 43.234375 99.785156 43.28125 Z M 99.246094 40.601562 C 99.292969 40.367188 99.433594 40.203125 99.503906 40.179688 C 99.550781 40.179688 99.691406 40.273438 99.761719 40.414062 C 99.878906 40.671875 99.878906 41.019531 99.878906 41.371094 C 99.878906 41.53125 99.878906 41.671875 99.855469 41.835938 C 99.691406 41.789062 99.527344 41.71875 99.433594 41.578125 C 99.222656 41.347656 99.152344 40.972656 99.246094 40.601562 Z M 99.246094 40.601562 " fill-opacity="1" fill-rule="nonzero"/><path fill="#2e3c3f" d="M 85.320312 45.21875 C 85.414062 46.011719 85.484375 46.804688 85.53125 47.574219 L 86.789062 64.042969 C 86.8125 64.417969 87.140625 64.71875 87.515625 64.71875 C 87.535156 64.71875 87.558594 64.71875 87.558594 64.71875 C 87.957031 64.695312 88.261719 64.347656 88.214844 63.949219 L 86.953125 47.480469 C 86.90625 46.734375 86.835938 45.988281 86.742188 45.21875 C 88.097656 45.007812 89.355469 44.214844 90.242188 43.027344 C 91.175781 41.789062 91.574219 40.25 91.316406 38.851562 C 91.246094 38.453125 90.894531 38.199219 90.476562 38.265625 C 90.078125 38.335938 89.824219 38.710938 89.894531 39.105469 C 90.078125 40.132812 89.777344 41.253906 89.078125 42.164062 C 88.421875 43.050781 87.492188 43.632812 86.535156 43.796875 C 86.417969 43.1875 86.300781 42.605469 86.113281 42.023438 C 85.789062 40.972656 85.203125 40.671875 84.785156 40.601562 C 84.457031 40.554688 84.109375 40.648438 83.78125 40.832031 C 83.292969 41.136719 82.964844 41.671875 82.894531 42.28125 C 82.800781 43.003906 83.011719 43.726562 83.476562 44.261719 C 83.945312 44.777344 84.574219 45.101562 85.320312 45.21875 Z M 84.574219 42 C 84.574219 42 84.667969 42.070312 84.785156 42.417969 C 84.902344 42.816406 85.019531 43.234375 85.085938 43.65625 C 84.878906 43.5625 84.714844 43.445312 84.574219 43.304688 C 84.386719 43.097656 84.292969 42.792969 84.339844 42.488281 C 84.339844 42.371094 84.410156 42.164062 84.574219 42 Z M 84.574219 42 " fill-opacity="1" fill-rule="nonzero"/><g fill="#2e3c3f" fill-opacity="1"><g transform="translate(171.794683, 197.093846)"><g><path d="M 55.90625 -74.0625 C 56.851562 -74.132812 58.347656 -74.171875 60.390625 -74.171875 C 62.429688 -74.171875 63.816406 -74.0625 64.546875 -73.84375 C 66.660156 -73.332031 68.609375 -72.289062 70.390625 -70.71875 C 72.179688 -69.15625 73.515625 -67.425781 74.390625 -65.53125 L 75.15625 -63.453125 L 74.9375 -59.84375 C 74.9375 -59.769531 74.878906 -58.707031 74.765625 -56.65625 C 74.660156 -54.613281 74.570312 -53.265625 74.5 -52.609375 C 74.425781 -50.347656 74.28125 -43.203125 74.0625 -31.171875 C 74.0625 -28.328125 74.0625 -25.773438 74.0625 -23.515625 C 74.0625 -16.804688 73.988281 -13.015625 73.84375 -12.140625 C 73.476562 -9.585938 72.691406 -7.070312 71.484375 -4.59375 C 70.285156 -2.113281 69.140625 -0.582031 68.046875 0 C 67.390625 0.363281 66.585938 0.546875 65.640625 0.546875 C 65.492188 0.546875 65.109375 0.523438 64.484375 0.484375 C 63.867188 0.453125 63.125 0.179688 62.25 -0.328125 C 60.9375 -1.347656 59.84375 -3.28125 58.96875 -6.125 C 58.457031 -7.21875 58.164062 -12.101562 58.09375 -20.78125 C 57.726562 -30.476562 57.363281 -35.4375 57 -35.65625 C 57 -35.65625 56.960938 -35.65625 56.890625 -35.65625 C 56.671875 -35.65625 56.25 -35.085938 55.625 -33.953125 C 55.007812 -32.828125 54.039062 -30.953125 52.71875 -28.328125 C 49.289062 -20.523438 46.191406 -15.820312 43.421875 -14.21875 C 42.617188 -13.851562 41.742188 -13.671875 40.796875 -13.671875 C 40.359375 -13.671875 39.664062 -13.742188 38.71875 -13.890625 C 37.769531 -14.035156 36.859375 -14.617188 35.984375 -15.640625 C 33.796875 -18.335938 30.039062 -25.519531 24.71875 -37.1875 C 23.550781 -39.8125 22.859375 -41.125 22.640625 -41.125 C 22.566406 -41.125 22.507812 -40.921875 22.46875 -40.515625 C 22.4375 -40.117188 22.421875 -39.484375 22.421875 -38.609375 L 22.421875 -38.390625 C 22.421875 -38.316406 22.421875 -38.242188 22.421875 -38.171875 L 22.421875 -37.953125 C 22.421875 -37.953125 22.421875 -37.914062 22.421875 -37.84375 L 22.421875 -37.734375 C 22.421875 -37.734375 22.421875 -37.695312 22.421875 -37.625 C 22.421875 -37.550781 22.421875 -37.515625 22.421875 -37.515625 L 22.421875 -37.1875 C 22.421875 -37.1875 22.421875 -37.148438 22.421875 -37.078125 L 22.421875 -35.4375 C 22.203125 -31.207031 22.019531 -26.6875 21.875 -21.875 C 21.800781 -16.84375 21.472656 -13.269531 20.890625 -11.15625 C 19.941406 -7.800781 18.265625 -4.335938 15.859375 -0.765625 C 15.347656 -0.0351562 14.691406 0.328125 13.890625 0.328125 C 13.453125 0.328125 12.941406 0.179688 12.359375 -0.109375 C 11.265625 -0.691406 10.148438 -1.945312 9.015625 -3.875 C 7.890625 -5.8125 7.109375 -7.726562 6.671875 -9.625 C 5.941406 -12.976562 5.578125 -19.867188 5.578125 -30.296875 C 5.578125 -35.109375 5.648438 -40.722656 5.796875 -47.140625 C 6.015625 -55.535156 6.160156 -61.082031 6.234375 -63.78125 C 6.234375 -65.601562 6.34375 -66.804688 6.5625 -67.390625 C 6.78125 -67.972656 7.507812 -68.703125 8.75 -69.578125 C 10.644531 -70.890625 12.285156 -71.691406 13.671875 -71.984375 C 13.816406 -71.984375 13.960938 -71.984375 14.109375 -71.984375 C 16.878906 -71.984375 19.722656 -70.488281 22.640625 -67.5 C 24.242188 -66.113281 26.359375 -62.976562 28.984375 -58.09375 C 30.878906 -54.582031 32.226562 -52.132812 33.03125 -50.75 C 33.90625 -49.289062 35.253906 -46.628906 37.078125 -42.765625 C 38.898438 -38.753906 39.921875 -36.75 40.140625 -36.75 C 40.796875 -37.1875 42.328125 -40.613281 44.734375 -47.03125 C 46.117188 -50.75 47.46875 -54.109375 48.78125 -57.109375 C 50.820312 -61.992188 52.097656 -65.019531 52.609375 -66.1875 C 53.117188 -67.351562 53.375 -68.59375 53.375 -69.90625 C 53.375 -71.363281 53.445312 -72.347656 53.59375 -72.859375 C 53.738281 -73.441406 54.507812 -73.84375 55.90625 -74.0625 Z M 55.90625 -74.0625 "/></g></g></g><g fill="#2e3c3f" fill-opacity="1"><g transform="translate(252.418112, 197.093846)"><g><path d="M 26.140625 -52.28125 C 27.160156 -52.425781 28.21875 -52.5 29.3125 -52.5 C 30.695312 -52.5 32.117188 -52.390625 33.578125 -52.171875 C 38.753906 -51.515625 42.65625 -49.765625 45.28125 -46.921875 C 48.195312 -43.929688 50.3125 -40.921875 51.625 -37.890625 C 52.9375 -34.867188 53.59375 -32.554688 53.59375 -30.953125 C 53.59375 -30.222656 53.484375 -29.566406 53.265625 -28.984375 C 52.390625 -26.941406 50.3125 -25.664062 47.03125 -25.15625 C 42.507812 -24.207031 35.144531 -23.660156 24.9375 -23.515625 L 18.59375 -23.40625 L 18.59375 -21.875 C 18.59375 -20.414062 19.046875 -19.03125 19.953125 -17.71875 C 20.867188 -16.40625 22.019531 -15.421875 23.40625 -14.765625 C 25.15625 -13.960938 28.289062 -13.488281 32.8125 -13.34375 C 33.613281 -13.34375 34.378906 -13.34375 35.109375 -13.34375 C 37.148438 -13.34375 38.753906 -13.414062 39.921875 -13.5625 C 41.742188 -13.851562 43.363281 -14.414062 44.78125 -15.25 C 46.207031 -16.09375 47.175781 -17.097656 47.6875 -18.265625 C 47.90625 -18.847656 48.195312 -19.140625 48.5625 -19.140625 C 48.632812 -19.140625 49.070312 -18.863281 49.875 -18.3125 C 50.675781 -17.769531 51.296875 -17.316406 51.734375 -16.953125 C 52.535156 -16.367188 52.9375 -15.75 52.9375 -15.09375 C 52.9375 -14.875 52.863281 -14.617188 52.71875 -14.328125 C 52.5 -13.816406 52.351562 -13.050781 52.28125 -12.03125 C 52.207031 -10.425781 51.476562 -8.859375 50.09375 -7.328125 C 49.070312 -6.085938 47.300781 -4.789062 44.78125 -3.4375 C 42.269531 -2.09375 40.175781 -1.238281 38.5 -0.875 C 37.1875 -0.582031 35.546875 -0.414062 33.578125 -0.375 C 31.609375 -0.34375 30.222656 -0.328125 29.421875 -0.328125 C 27.742188 -0.328125 26.394531 -0.363281 25.375 -0.4375 C 21.507812 -0.875 17.898438 -2.09375 14.546875 -4.09375 C 11.191406 -6.101562 8.492188 -8.601562 6.453125 -11.59375 C 4.265625 -14.875 3.0625 -19.03125 2.84375 -24.0625 C 2.84375 -24.570312 2.84375 -25.046875 2.84375 -25.484375 C 2.84375 -28.546875 3.242188 -31.316406 4.046875 -33.796875 C 6.523438 -41.015625 10.535156 -46.117188 16.078125 -49.109375 C 19.503906 -50.710938 22.859375 -51.769531 26.140625 -52.28125 Z M 32.59375 -41.890625 C 31.5 -42.035156 30.515625 -42.109375 29.640625 -42.109375 C 28.546875 -42.109375 27.597656 -42 26.796875 -41.78125 C 24.972656 -41.269531 23.273438 -40.359375 21.703125 -39.046875 C 20.140625 -37.734375 19.359375 -36.566406 19.359375 -35.546875 C 19.359375 -35.546875 19.359375 -35.507812 19.359375 -35.4375 C 19.429688 -34.851562 19.59375 -34.523438 19.84375 -34.453125 C 20.101562 -34.378906 20.304688 -34.34375 20.453125 -34.34375 C 20.890625 -34.34375 21.472656 -34.414062 22.203125 -34.5625 C 27.742188 -35.726562 32.957031 -36.3125 37.84375 -36.3125 L 39.921875 -36.3125 L 39.921875 -37.078125 C 39.921875 -37.367188 39.445312 -37.988281 38.5 -38.9375 C 36.75 -40.613281 34.78125 -41.597656 32.59375 -41.890625 Z M 32.59375 -41.890625 "/></g></g></g><g fill="#2e3c3f" fill-opacity="1"><g transform="translate(308.756054, 197.093846)"><g><path d="M 14.328125 -49.109375 L 16.953125 -50.53125 C 18.410156 -51.039062 19.867188 -51.382812 21.328125 -51.5625 C 22.785156 -51.75 24.207031 -51.84375 25.59375 -51.84375 C 26.976562 -51.84375 28.378906 -51.75 29.796875 -51.5625 C 31.222656 -51.382812 33.394531 -50.820312 36.3125 -49.875 C 36.382812 -49.875 36.421875 -49.875 36.421875 -49.875 L 36.640625 -49.765625 C 36.710938 -49.765625 36.785156 -49.726562 36.859375 -49.65625 L 37.1875 -49.546875 C 37.257812 -49.546875 37.332031 -49.546875 37.40625 -49.546875 L 37.625 -49.4375 C 37.769531 -49.363281 37.953125 -49.289062 38.171875 -49.21875 L 38.390625 -49.21875 C 38.609375 -49.144531 38.789062 -49.070312 38.9375 -49 L 39.15625 -48.890625 C 39.519531 -48.816406 39.882812 -48.707031 40.25 -48.5625 L 40.46875 -48.453125 C 40.46875 -48.453125 40.503906 -48.453125 40.578125 -48.453125 L 40.6875 -48.453125 C 40.832031 -48.378906 40.976562 -48.304688 41.125 -48.234375 L 41.234375 -48.234375 C 41.304688 -48.234375 41.414062 -48.195312 41.5625 -48.125 C 42.65625 -47.757812 43.859375 -46.992188 45.171875 -45.828125 C 46.921875 -44.222656 47.832031 -42.945312 47.90625 -42 C 47.976562 -41.050781 48.015625 -40.539062 48.015625 -40.46875 C 48.015625 -38.863281 47.210938 -37.769531 45.609375 -37.1875 C 45.023438 -36.96875 44.367188 -36.859375 43.640625 -36.859375 C 41.960938 -36.859375 39.957031 -37.476562 37.625 -38.71875 C 36.019531 -39.519531 34.453125 -40.140625 32.921875 -40.578125 C 30.953125 -41.234375 29.054688 -41.5625 27.234375 -41.5625 C 26.503906 -41.5625 25.316406 -41.429688 23.671875 -41.171875 C 22.035156 -40.921875 20.816406 -40.03125 20.015625 -38.5 C 19.578125 -37.625 19.359375 -36.820312 19.359375 -36.09375 C 19.359375 -35.363281 19.578125 -34.707031 20.015625 -34.125 C 20.453125 -33.539062 21.195312 -33.101562 22.25 -32.8125 C 23.3125 -32.519531 26.101562 -32.046875 30.625 -31.390625 C 32.664062 -31.097656 34.925781 -30.585938 37.40625 -29.859375 C 39.882812 -29.128906 41.816406 -28.328125 43.203125 -27.453125 C 43.859375 -27.015625 44.769531 -26.175781 45.9375 -24.9375 C 48.488281 -22.238281 49.765625 -19.175781 49.765625 -15.75 C 49.765625 -13.269531 49.109375 -10.644531 47.796875 -7.875 C 46.335938 -5.320312 43.421875 -2.953125 39.046875 -0.765625 C 36.347656 0.546875 33.359375 1.203125 30.078125 1.203125 C 28.179688 1.203125 26.519531 1 25.09375 0.59375 C 23.675781 0.195312 21.65625 -0.582031 19.03125 -1.75 C 15.382812 -3.351562 12.6875 -4.703125 10.9375 -5.796875 C 9.1875 -6.890625 7.507812 -8.421875 5.90625 -10.390625 C 4.15625 -12.429688 3.28125 -14.21875 3.28125 -15.75 C 3.28125 -16.332031 3.390625 -16.84375 3.609375 -17.28125 L 3.9375 -18.046875 L 5.03125 -17.71875 C 5.539062 -17.5 6.78125 -16.878906 8.75 -15.859375 C 14.65625 -12.867188 19.941406 -11.375 24.609375 -11.375 C 25.335938 -11.375 26.03125 -11.410156 26.6875 -11.484375 C 29.09375 -11.628906 30.769531 -12.101562 31.71875 -12.90625 C 32.15625 -13.269531 32.519531 -13.851562 32.8125 -14.65625 C 33.03125 -15.238281 33.140625 -15.75 33.140625 -16.1875 C 33.140625 -16.695312 33.03125 -17.132812 32.8125 -17.5 C 32.519531 -18.375 32.046875 -18.957031 31.390625 -19.25 C 30.734375 -19.539062 29.492188 -19.796875 27.671875 -20.015625 C 21.835938 -20.671875 17.914062 -21.269531 15.90625 -21.8125 C 13.90625 -22.363281 11.882812 -23.40625 9.84375 -24.9375 C 7.363281 -26.757812 5.773438 -28.4375 5.078125 -29.96875 C 4.390625 -31.5 4.046875 -33.066406 4.046875 -34.671875 C 4.046875 -35.253906 4.082031 -35.875 4.15625 -36.53125 C 4.519531 -39.59375 5.976562 -42.4375 8.53125 -45.0625 C 9.769531 -46.375 11.703125 -47.722656 14.328125 -49.109375 Z M 14.328125 -49.109375 "/></g></g></g><g fill="#2e3c3f" fill-opacity="1"><g transform="translate(361.812169, 197.093846)"><g><path d="M 14.328125 -49.109375 L 16.953125 -50.53125 C 18.410156 -51.039062 19.867188 -51.382812 21.328125 -51.5625 C 22.785156 -51.75 24.207031 -51.84375 25.59375 -51.84375 C 26.976562 -51.84375 28.378906 -51.75 29.796875 -51.5625 C 31.222656 -51.382812 33.394531 -50.820312 36.3125 -49.875 C 36.382812 -49.875 36.421875 -49.875 36.421875 -49.875 L 36.640625 -49.765625 C 36.710938 -49.765625 36.785156 -49.726562 36.859375 -49.65625 L 37.1875 -49.546875 C 37.257812 -49.546875 37.332031 -49.546875 37.40625 -49.546875 L 37.625 -49.4375 C 37.769531 -49.363281 37.953125 -49.289062 38.171875 -49.21875 L 38.390625 -49.21875 C 38.609375 -49.144531 38.789062 -49.070312 38.9375 -49 L 39.15625 -48.890625 C 39.519531 -48.816406 39.882812 -48.707031 40.25 -48.5625 L 40.46875 -48.453125 C 40.46875 -48.453125 40.503906 -48.453125 40.578125 -48.453125 L 40.6875 -48.453125 C 40.832031 -48.378906 40.976562 -48.304688 41.125 -48.234375 L 41.234375 -48.234375 C 41.304688 -48.234375 41.414062 -48.195312 41.5625 -48.125 C 42.65625 -47.757812 43.859375 -46.992188 45.171875 -45.828125 C 46.921875 -44.222656 47.832031 -42.945312 47.90625 -42 C 47.976562 -41.050781 48.015625 -40.539062 48.015625 -40.46875 C 48.015625 -38.863281 47.210938 -37.769531 45.609375 -37.1875 C 45.023438 -36.96875 44.367188 -36.859375 43.640625 -36.859375 C 41.960938 -36.859375 39.957031 -37.476562 37.625 -38.71875 C 36.019531 -39.519531 34.453125 -40.140625 32.921875 -40.578125 C 30.953125 -41.234375 29.054688 -41.5625 27.234375 -41.5625 C 26.503906 -41.5625 25.316406 -41.429688 23.671875 -41.171875 C 22.035156 -40.921875 20.816406 -40.03125 20.015625 -38.5 C 19.578125 -37.625 19.359375 -36.820312 19.359375 -36.09375 C 19.359375 -35.363281 19.578125 -34.707031 20.015625 -34.125 C 20.453125 -33.539062 21.195312 -33.101562 22.25 -32.8125 C 23.3125 -32.519531 26.101562 -32.046875 30.625 -31.390625 C 32.664062 -31.097656 34.925781 -30.585938 37.40625 -29.859375 C 39.882812 -29.128906 41.816406 -28.328125 43.203125 -27.453125 C 43.859375 -27.015625 44.769531 -26.175781 45.9375 -24.9375 C 48.488281 -22.238281 49.765625 -19.175781 49.765625 -15.75 C 49.765625 -13.269531 49.109375 -10.644531 47.796875 -7.875 C 46.335938 -5.320312 43.421875 -2.953125 39.046875 -0.765625 C 36.347656 0.546875 33.359375 1.203125 30.078125 1.203125 C 28.179688 1.203125 26.519531 1 25.09375 0.59375 C 23.675781 0.195312 21.65625 -0.582031 19.03125 -1.75 C 15.382812 -3.351562 12.6875 -4.703125 10.9375 -5.796875 C 9.1875 -6.890625 7.507812 -8.421875 5.90625 -10.390625 C 4.15625 -12.429688 3.28125 -14.21875 3.28125 -15.75 C 3.28125 -16.332031 3.390625 -16.84375 3.609375 -17.28125 L 3.9375 -18.046875 L 5.03125 -17.71875 C 5.539062 -17.5 6.78125 -16.878906 8.75 -15.859375 C 14.65625 -12.867188 19.941406 -11.375 24.609375 -11.375 C 25.335938 -11.375 26.03125 -11.410156 26.6875 -11.484375 C 29.09375 -11.628906 30.769531 -12.101562 31.71875 -12.90625 C 32.15625 -13.269531 32.519531 -13.851562 32.8125 -14.65625 C 33.03125 -15.238281 33.140625 -15.75 33.140625 -16.1875 C 33.140625 -16.695312 33.03125 -17.132812 32.8125 -17.5 C 32.519531 -18.375 32.046875 -18.957031 31.390625 -19.25 C 30.734375 -19.539062 29.492188 -19.796875 27.671875 -20.015625 C 21.835938 -20.671875 17.914062 -21.269531 15.90625 -21.8125 C 13.90625 -22.363281 11.882812 -23.40625 9.84375 -24.9375 C 7.363281 -26.757812 5.773438 -28.4375 5.078125 -29.96875 C 4.390625 -31.5 4.046875 -33.066406 4.046875 -34.671875 C 4.046875 -35.253906 4.082031 -35.875 4.15625 -36.53125 C 4.519531 -39.59375 5.976562 -42.4375 8.53125 -45.0625 C 9.769531 -46.375 11.703125 -47.722656 14.328125 -49.109375 Z M 14.328125 -49.109375 "/></g></g></g><g fill="#2e3c3f" fill-opacity="1"><g transform="translate(414.868296, 197.093846)"><g><path d="M 24.0625 -52.5 C 24.132812 -52.5 24.207031 -52.5 24.28125 -52.5 C 24.351562 -52.5 24.390625 -52.5 24.390625 -52.5 L 24.609375 -52.5 C 24.609375 -52.5 24.644531 -52.5 24.71875 -52.5 L 24.828125 -52.5 C 24.828125 -52.5 24.863281 -52.5 24.9375 -52.5 L 25.15625 -52.5 C 25.226562 -52.5 25.265625 -52.5 25.265625 -52.5 L 27.015625 -52.5 C 27.015625 -52.5 27.050781 -52.5 27.125 -52.5 L 27.890625 -52.5 C 30.222656 -52.351562 32.15625 -52.0625 33.6875 -51.625 C 36.96875 -50.601562 39.445312 -49.691406 41.125 -48.890625 C 42.144531 -48.378906 43.382812 -46.957031 44.84375 -44.625 C 45.425781 -43.75 45.71875 -43.09375 45.71875 -42.65625 C 45.71875 -42.21875 45.789062 -41.234375 45.9375 -39.703125 C 46.082031 -38.535156 46.15625 -37.113281 46.15625 -35.4375 C 46.15625 -34.195312 46.117188 -32.882812 46.046875 -31.5 C 45.972656 -28.65625 45.9375 -25.773438 45.9375 -22.859375 C 45.9375 -19.359375 46.082031 -16.878906 46.375 -15.421875 C 46.664062 -13.960938 47.140625 -12.832031 47.796875 -12.03125 C 48.671875 -10.863281 49.875 -10.28125 51.40625 -10.28125 C 51.84375 -10.28125 52.097656 -10.171875 52.171875 -9.953125 C 52.316406 -9.515625 52.390625 -9.039062 52.390625 -8.53125 C 52.390625 -7.65625 52.1875 -6.539062 51.78125 -5.1875 C 51.382812 -3.84375 50.675781 -2.804688 49.65625 -2.078125 C 48.195312 -1.128906 46.847656 -0.65625 45.609375 -0.65625 C 45.460938 -0.65625 45.316406 -0.65625 45.171875 -0.65625 C 43.785156 -0.65625 42.253906 -0.945312 40.578125 -1.53125 C 39.703125 -1.820312 38.753906 -2.441406 37.734375 -3.390625 C 36.710938 -4.191406 36.128906 -4.59375 35.984375 -4.59375 C 35.835938 -4.59375 34.707031 -4.082031 32.59375 -3.0625 C 30.039062 -1.675781 27.597656 -0.691406 25.265625 -0.109375 C 23.953125 0.179688 22.347656 0.328125 20.453125 0.328125 C 20.085938 0.328125 19.722656 0.328125 19.359375 0.328125 C 17.679688 0.253906 16.40625 0.109375 15.53125 -0.109375 C 14.65625 -0.328125 13.5625 -0.726562 12.25 -1.3125 C 8.601562 -2.914062 5.832031 -5.722656 3.9375 -9.734375 L 3.0625 -11.59375 L 3.0625 -14.546875 C 3.132812 -16.515625 3.316406 -18.15625 3.609375 -19.46875 C 4.554688 -23.039062 6.597656 -26.175781 9.734375 -28.875 C 12.867188 -31.570312 16.734375 -33.429688 21.328125 -34.453125 C 23.148438 -34.960938 26.867188 -35.253906 32.484375 -35.328125 C 32.992188 -35.328125 33.320312 -35.363281 33.46875 -35.4375 C 33.613281 -35.507812 33.757812 -35.726562 33.90625 -36.09375 C 34.125 -36.675781 34.234375 -37.1875 34.234375 -37.625 C 34.234375 -38.0625 34.125 -38.570312 33.90625 -39.15625 C 33.6875 -39.738281 33.175781 -40.25 32.375 -40.6875 C 31.71875 -41.050781 30.769531 -41.234375 29.53125 -41.234375 C 29.382812 -41.234375 28.925781 -41.210938 28.15625 -41.171875 C 27.394531 -41.140625 26.429688 -40.941406 25.265625 -40.578125 C 22.710938 -39.773438 19.25 -38.316406 14.875 -36.203125 C 12.757812 -35.179688 11.460938 -34.597656 10.984375 -34.453125 C 10.515625 -34.304688 10.132812 -34.234375 9.84375 -34.234375 C 9.332031 -34.234375 8.640625 -34.378906 7.765625 -34.671875 C 6.890625 -34.960938 6.140625 -35.765625 5.515625 -37.078125 C 4.898438 -38.390625 4.59375 -39.554688 4.59375 -40.578125 L 4.703125 -41.890625 L 6.34375 -43.75 C 7.363281 -44.769531 8.457031 -45.644531 9.625 -46.375 C 13.707031 -48.925781 18.519531 -50.96875 24.0625 -52.5 Z M 32.484375 -19.25 C 32.484375 -20.050781 32.484375 -20.742188 32.484375 -21.328125 C 32.484375 -22.566406 32.425781 -23.238281 32.3125 -23.34375 C 32.207031 -23.457031 31.367188 -23.515625 29.796875 -23.515625 C 28.234375 -23.515625 27.125 -23.476562 26.46875 -23.40625 C 23.550781 -22.601562 21.070312 -21.328125 19.03125 -19.578125 C 17.5 -18.265625 16.734375 -16.878906 16.734375 -15.421875 C 16.734375 -15.128906 16.769531 -14.765625 16.84375 -14.328125 C 17.0625 -13.378906 17.332031 -12.8125 17.65625 -12.625 C 17.988281 -12.445312 18.664062 -12.359375 19.6875 -12.359375 C 19.90625 -12.359375 20.125 -12.359375 20.34375 -12.359375 C 23.257812 -12.359375 26.796875 -13.304688 30.953125 -15.203125 L 32.484375 -15.75 Z M 32.484375 -19.25 "/></g></g></g><g fill="#2e3c3f" fill-opacity="1"><g transform="translate(468.580788, 197.093846)"><g><path d="M 39.375 -52.71875 C 39.519531 -52.789062 39.773438 -52.898438 40.140625 -53.046875 L 40.25 -53.15625 C 40.46875 -53.15625 41.234375 -53.007812 42.546875 -52.71875 C 43.859375 -52.425781 44.769531 -52.171875 45.28125 -51.953125 C 48.195312 -50.710938 50.347656 -48.78125 51.734375 -46.15625 C 52.171875 -45.28125 52.390625 -44.296875 52.390625 -43.203125 C 52.390625 -42.253906 52.242188 -41.234375 51.953125 -40.140625 C 51.660156 -38.972656 51.476562 -36.09375 51.40625 -31.5 C 51.550781 -25.082031 51.625 -19.503906 51.625 -14.765625 C 51.625 -4.335938 51.332031 2.078125 50.75 4.484375 C 50.238281 7.984375 49.363281 10.972656 48.125 13.453125 C 46.300781 17.242188 42.582031 19.832031 36.96875 21.21875 C 35.363281 21.507812 33.773438 21.671875 32.203125 21.703125 C 30.640625 21.742188 29.675781 21.765625 29.3125 21.765625 C 27.195312 21.765625 25.375 21.617188 23.84375 21.328125 C 19.613281 20.597656 16.039062 18.992188 13.125 16.515625 C 10.425781 14.179688 8.3125 11.046875 6.78125 7.109375 C 6.269531 5.796875 6.015625 4.410156 6.015625 2.953125 C 6.015625 2.804688 6.015625 2.625 6.015625 2.40625 C 6.015625 1.894531 6.015625 1.421875 6.015625 0.984375 C 6.015625 0.179688 6.050781 -0.328125 6.125 -0.546875 C 6.195312 -0.765625 6.578125 -1.070312 7.265625 -1.46875 C 7.960938 -1.875 8.3125 -2.222656 8.3125 -2.515625 C 8.3125 -2.585938 8.3125 -2.625 8.3125 -2.625 C 8.238281 -2.84375 8.203125 -3.023438 8.203125 -3.171875 C 8.203125 -3.316406 8.203125 -3.425781 8.203125 -3.5 C 8.128906 -3.570312 8.09375 -3.644531 8.09375 -3.71875 C 8.09375 -3.71875 8.109375 -3.734375 8.140625 -3.765625 C 8.179688 -3.804688 8.203125 -3.828125 8.203125 -3.828125 C 8.347656 -3.828125 8.675781 -3.679688 9.1875 -3.390625 C 10.71875 -2.585938 12.503906 -0.691406 14.546875 2.296875 C 16.296875 4.847656 17.9375 6.597656 19.46875 7.546875 C 21.21875 8.640625 23.296875 9.1875 25.703125 9.1875 C 27.523438 9.1875 29.4375 8.75 31.4375 7.875 C 33.445312 7 34.707031 5.976562 35.21875 4.8125 C 35.800781 3.570312 36.09375 2.003906 36.09375 0.109375 C 36.09375 -0.109375 36.09375 -0.328125 36.09375 -0.546875 C 36.09375 -2.078125 35.910156 -2.84375 35.546875 -2.84375 C 35.472656 -2.84375 35.328125 -2.820312 35.109375 -2.78125 C 34.890625 -2.75 34.671875 -2.625 34.453125 -2.40625 C 34.160156 -2.1875 33.066406 -1.859375 31.171875 -1.421875 C 29.128906 -0.984375 27.394531 -0.742188 25.96875 -0.703125 C 24.550781 -0.671875 23.734375 -0.65625 23.515625 -0.65625 C 21.109375 -0.65625 19.210938 -0.910156 17.828125 -1.421875 C 15.273438 -2.222656 12.796875 -3.609375 10.390625 -5.578125 C 6.015625 -9.078125 3.132812 -13.125 1.75 -17.71875 C 1.3125 -19.101562 1.09375 -21.363281 1.09375 -24.5 C 1.09375 -24.71875 1.109375 -25.773438 1.140625 -27.671875 C 1.179688 -29.566406 1.457031 -31.425781 1.96875 -33.25 C 3.5 -39.082031 6.015625 -43.53125 9.515625 -46.59375 C 11.847656 -48.5625 14.617188 -49.875 17.828125 -50.53125 C 19.503906 -50.894531 21.21875 -51.09375 22.96875 -51.125 C 24.71875 -51.164062 25.8125 -51.1875 26.25 -51.1875 C 28.65625 -51.1875 30.734375 -51.039062 32.484375 -50.75 C 34.742188 -50.382812 36 -50.128906 36.25 -49.984375 C 36.507812 -49.835938 36.675781 -49.765625 36.75 -49.765625 C 37.039062 -49.765625 37.367188 -50.128906 37.734375 -50.859375 C 38.242188 -51.878906 38.789062 -52.5 39.375 -52.71875 Z M 31.828125 -38.609375 C 30.804688 -38.972656 29.820312 -39.171875 28.875 -39.203125 C 27.925781 -39.242188 27.304688 -39.265625 27.015625 -39.265625 C 25.847656 -39.265625 24.863281 -39.15625 24.0625 -38.9375 C 22.238281 -38.5 20.488281 -37.367188 18.8125 -35.546875 C 17.132812 -33.722656 16.113281 -31.644531 15.75 -29.3125 C 15.457031 -28.144531 15.3125 -26.976562 15.3125 -25.8125 C 15.3125 -23.769531 15.929688 -21.5625 17.171875 -19.1875 C 18.410156 -16.820312 20.488281 -15.273438 23.40625 -14.546875 C 24.0625 -14.398438 24.71875 -14.328125 25.375 -14.328125 C 28.144531 -14.328125 30.953125 -15.640625 33.796875 -18.265625 L 36.09375 -20.34375 L 35.875 -26.90625 C 35.875 -31.5 35.632812 -34.414062 35.15625 -35.65625 C 34.6875 -36.894531 33.578125 -37.878906 31.828125 -38.609375 Z M 31.828125 -38.609375 "/></g></g></g><g fill="#2e3c3f" fill-opacity="1"><g transform="translate(525.465707, 197.093846)"><g><path d="M 26.140625 -52.28125 C 27.160156 -52.425781 28.21875 -52.5 29.3125 -52.5 C 30.695312 -52.5 32.117188 -52.390625 33.578125 -52.171875 C 38.753906 -51.515625 42.65625 -49.765625 45.28125 -46.921875 C 48.195312 -43.929688 50.3125 -40.921875 51.625 -37.890625 C 52.9375 -34.867188 53.59375 -32.554688 53.59375 -30.953125 C 53.59375 -30.222656 53.484375 -29.566406 53.265625 -28.984375 C 52.390625 -26.941406 50.3125 -25.664062 47.03125 -25.15625 C 42.507812 -24.207031 35.144531 -23.660156 24.9375 -23.515625 L 18.59375 -23.40625 L 18.59375 -21.875 C 18.59375 -20.414062 19.046875 -19.03125 19.953125 -17.71875 C 20.867188 -16.40625 22.019531 -15.421875 23.40625 -14.765625 C 25.15625 -13.960938 28.289062 -13.488281 32.8125 -13.34375 C 33.613281 -13.34375 34.378906 -13.34375 35.109375 -13.34375 C 37.148438 -13.34375 38.753906 -13.414062 39.921875 -13.5625 C 41.742188 -13.851562 43.363281 -14.414062 44.78125 -15.25 C 46.207031 -16.09375 47.175781 -17.097656 47.6875 -18.265625 C 47.90625 -18.847656 48.195312 -19.140625 48.5625 -19.140625 C 48.632812 -19.140625 49.070312 -18.863281 49.875 -18.3125 C 50.675781 -17.769531 51.296875 -17.316406 51.734375 -16.953125 C 52.535156 -16.367188 52.9375 -15.75 52.9375 -15.09375 C 52.9375 -14.875 52.863281 -14.617188 52.71875 -14.328125 C 52.5 -13.816406 52.351562 -13.050781 52.28125 -12.03125 C 52.207031 -10.425781 51.476562 -8.859375 50.09375 -7.328125 C 49.070312 -6.085938 47.300781 -4.789062 44.78125 -3.4375 C 42.269531 -2.09375 40.175781 -1.238281 38.5 -0.875 C 37.1875 -0.582031 35.546875 -0.414062 33.578125 -0.375 C 31.609375 -0.34375 30.222656 -0.328125 29.421875 -0.328125 C 27.742188 -0.328125 26.394531 -0.363281 25.375 -0.4375 C 21.507812 -0.875 17.898438 -2.09375 14.546875 -4.09375 C 11.191406 -6.101562 8.492188 -8.601562 6.453125 -11.59375 C 4.265625 -14.875 3.0625 -19.03125 2.84375 -24.0625 C 2.84375 -24.570312 2.84375 -25.046875 2.84375 -25.484375 C 2.84375 -28.546875 3.242188 -31.316406 4.046875 -33.796875 C 6.523438 -41.015625 10.535156 -46.117188 16.078125 -49.109375 C 19.503906 -50.710938 22.859375 -51.769531 26.140625 -52.28125 Z M 32.59375 -41.890625 C 31.5 -42.035156 30.515625 -42.109375 29.640625 -42.109375 C 28.546875 -42.109375 27.597656 -42 26.796875 -41.78125 C 24.972656 -41.269531 23.273438 -40.359375 21.703125 -39.046875 C 20.140625 -37.734375 19.359375 -36.566406 19.359375 -35.546875 C 19.359375 -35.546875 19.359375 -35.507812 19.359375 -35.4375 C 19.429688 -34.851562 19.59375 -34.523438 19.84375 -34.453125 C 20.101562 -34.378906 20.304688 -34.34375 20.453125 -34.34375 C 20.890625 -34.34375 21.472656 -34.414062 22.203125 -34.5625 C 27.742188 -35.726562 32.957031 -36.3125 37.84375 -36.3125 L 39.921875 -36.3125 L 39.921875 -37.078125 C 39.921875 -37.367188 39.445312 -37.988281 38.5 -38.9375 C 36.75 -40.613281 34.78125 -41.597656 32.59375 -41.890625 Z M 32.59375 -41.890625 "/></g></g></g><g fill="#2e3c3f" fill-opacity="1"><g transform="translate(581.803649, 197.093846)"><g/></g></g><g fill="#2e3c3f" fill-opacity="1"><g transform="translate(610.246096, 197.093846)"><g><path d="M 7.109375 -73.953125 C 7.546875 -74.242188 8.273438 -74.390625 9.296875 -74.390625 C 9.660156 -74.390625 10.097656 -74.351562 10.609375 -74.28125 C 13.523438 -74.28125 15.710938 -73.660156 17.171875 -72.421875 L 18.375 -71.4375 L 20.890625 -72.421875 C 24.171875 -73.660156 27.378906 -74.28125 30.515625 -74.28125 C 30.734375 -74.28125 30.914062 -74.28125 31.0625 -74.28125 C 38.425781 -74.132812 44.660156 -72.273438 49.765625 -68.703125 C 51.296875 -67.679688 52.941406 -66.078125 54.703125 -63.890625 C 56.523438 -61.628906 57.800781 -59.585938 58.53125 -57.765625 C 59.113281 -56.378906 59.476562 -55.410156 59.625 -54.859375 C 59.769531 -54.304688 59.84375 -53.335938 59.84375 -51.953125 C 59.84375 -50.128906 59.550781 -48.671875 58.96875 -47.578125 C 58.382812 -46.484375 57.582031 -45.171875 56.5625 -43.640625 L 54.8125 -41.125 C 54.8125 -41.125 55.429688 -40.25 56.671875 -38.5 C 58.566406 -35.21875 60.023438 -31.863281 61.046875 -28.4375 C 61.484375 -26.832031 61.71875 -25.171875 61.75 -23.453125 C 61.789062 -21.742188 61.8125 -20.78125 61.8125 -20.5625 C 61.8125 -17.71875 61.554688 -15.640625 61.046875 -14.328125 C 60.023438 -10.753906 58.617188 -7.984375 56.828125 -6.015625 C 55.035156 -4.046875 52.28125 -2.550781 48.5625 -1.53125 C 46.59375 -0.945312 43.929688 -0.546875 40.578125 -0.328125 C 39.703125 -0.328125 38.898438 -0.328125 38.171875 -0.328125 C 34.597656 -0.328125 31.476562 -0.617188 28.8125 -1.203125 C 26.15625 -1.785156 23.441406 -3.132812 20.671875 -5.25 L 18.921875 -6.5625 L 18.046875 -5.140625 C 16.734375 -3.609375 14.726562 -2.222656 12.03125 -0.984375 C 11.300781 -0.691406 10.609375 -0.546875 9.953125 -0.546875 C 8.492188 -0.546875 7.398438 -1.421875 6.671875 -3.171875 C 6.085938 -4.554688 5.738281 -6.050781 5.625 -7.65625 C 5.519531 -9.257812 5.46875 -11.484375 5.46875 -14.328125 C 5.46875 -17.171875 5.503906 -20.851562 5.578125 -25.375 C 5.648438 -53.820312 5.867188 -69.503906 6.234375 -72.421875 C 6.304688 -73.003906 6.597656 -73.515625 7.109375 -73.953125 Z M 37.40625 -62.90625 C 36.09375 -63.34375 34.832031 -63.578125 33.625 -63.609375 C 32.425781 -63.648438 31.609375 -63.671875 31.171875 -63.671875 C 29.859375 -63.671875 28.726562 -63.597656 27.78125 -63.453125 C 26.6875 -63.085938 25.5 -62.539062 24.21875 -61.8125 C 22.945312 -61.082031 22.128906 -60.425781 21.765625 -59.84375 L 21 -58.96875 L 21.21875 -51.515625 C 21.21875 -49.035156 21.21875 -47.175781 21.21875 -45.9375 C 21.21875 -44.695312 21.21875 -44.039062 21.21875 -43.96875 C 21.21875 -43.96875 21.253906 -43.96875 21.328125 -43.96875 C 21.691406 -43.96875 22.53125 -44.222656 23.84375 -44.734375 C 29.164062 -46.703125 34.269531 -47.90625 39.15625 -48.34375 C 41.414062 -48.414062 42.910156 -48.707031 43.640625 -49.21875 C 45.242188 -50.3125 46.046875 -51.804688 46.046875 -53.703125 C 46.046875 -55.460938 45.316406 -57.21875 43.859375 -58.96875 C 42.179688 -60.789062 40.03125 -62.101562 37.40625 -62.90625 Z M 39.59375 -33.359375 C 38.644531 -33.503906 37.660156 -33.578125 36.640625 -33.578125 C 32.773438 -33.578125 28.328125 -32.375 23.296875 -29.96875 C 21.691406 -29.3125 20.78125 -28.78125 20.5625 -28.375 C 20.34375 -27.976562 20.234375 -26.796875 20.234375 -24.828125 C 20.234375 -23.296875 20.34375 -22.382812 20.5625 -22.09375 C 20.78125 -21.800781 21.875 -21.070312 23.84375 -19.90625 C 28.4375 -17.0625 32.847656 -15.640625 37.078125 -15.640625 C 37.222656 -15.640625 37.332031 -15.640625 37.40625 -15.640625 C 39.8125 -15.640625 41.5625 -15.894531 42.65625 -16.40625 C 44.257812 -17.28125 45.5 -18.738281 46.375 -20.78125 C 46.8125 -21.726562 47.066406 -22.96875 47.140625 -24.5 C 47.140625 -24.789062 47.140625 -25.046875 47.140625 -25.265625 C 47.140625 -27.523438 46.554688 -29.328125 45.390625 -30.671875 C 44.222656 -32.023438 42.289062 -32.921875 39.59375 -33.359375 Z M 39.59375 -33.359375 "/></g></g></g><g fill="#2e3c3f" fill-opacity="1"><g transform="translate(677.523433, 197.093846)"><g><path d="M 7.546875 -75.59375 C 7.691406 -75.8125 8.640625 -75.921875 10.390625 -75.921875 C 10.753906 -75.921875 11.71875 -75.9375 13.28125 -75.96875 C 14.851562 -76.007812 15.96875 -75.992188 16.625 -75.921875 C 18.082031 -75.191406 19.359375 -73.734375 20.453125 -71.546875 C 20.890625 -70.453125 21.144531 -69.101562 21.21875 -67.5 C 21.21875 -67.28125 21.21875 -67.0625 21.21875 -66.84375 C 21.21875 -65.238281 21.289062 -58.632812 21.4375 -47.03125 C 21.726562 -23.625 21.546875 -10.242188 20.890625 -6.890625 C 20.453125 -4.484375 19.210938 -1.96875 17.171875 0.65625 C 16.515625 1.53125 16.039062 2.054688 15.75 2.234375 C 15.457031 2.421875 15.019531 2.515625 14.4375 2.515625 C 12.613281 2.585938 10.953125 1.367188 9.453125 -1.140625 C 7.960938 -3.660156 7.035156 -6.925781 6.671875 -10.9375 C 6.523438 -11.738281 6.414062 -13.523438 6.34375 -16.296875 C 6.269531 -20.378906 6.160156 -26.648438 6.015625 -35.109375 C 5.867188 -48.609375 5.867188 -57.328125 6.015625 -61.265625 C 6.015625 -64.179688 6.015625 -66.988281 6.015625 -69.6875 C 6.015625 -73.332031 6.523438 -75.300781 7.546875 -75.59375 Z M 7.546875 -75.59375 "/></g></g></g><g fill="#2e3c3f" fill-opacity="1"><g transform="translate(704.762539, 197.093846)"><g><path d="M 22.203125 -51.953125 C 23.003906 -52.097656 24.71875 -52.171875 27.34375 -52.171875 C 29.894531 -52.171875 32.484375 -51.804688 35.109375 -51.078125 C 37.734375 -50.347656 39.554688 -49.765625 40.578125 -49.328125 C 42.472656 -48.304688 44.003906 -46.992188 45.171875 -45.390625 C 46.484375 -43.640625 47.359375 -41.632812 47.796875 -39.375 C 48.160156 -38.207031 48.632812 -36.566406 49.21875 -34.453125 C 50.3125 -30.804688 50.859375 -27.34375 50.859375 -24.0625 C 50.859375 -23.84375 50.859375 -23.625 50.859375 -23.40625 C 50.785156 -19.976562 50.019531 -16.695312 48.5625 -13.5625 C 47.613281 -11.15625 46.082031 -8.894531 43.96875 -6.78125 C 41.195312 -4.007812 37.769531 -2.039062 33.6875 -0.875 C 32.226562 -0.4375 30.1875 -0.21875 27.5625 -0.21875 C 26.976562 -0.21875 26.394531 -0.21875 25.8125 -0.21875 C 22.382812 -0.21875 19.578125 -0.582031 17.390625 -1.3125 C 13.597656 -2.550781 10.5 -4.828125 8.09375 -8.140625 C 5.6875 -11.460938 4.15625 -15.53125 3.5 -20.34375 C 3.351562 -21.289062 3.28125 -22.53125 3.28125 -24.0625 C 3.28125 -24.863281 3.316406 -26.15625 3.390625 -27.9375 C 3.460938 -29.726562 3.644531 -31.351562 3.9375 -32.8125 C 5.320312 -38.570312 7.65625 -43.054688 10.9375 -46.265625 C 12.613281 -47.941406 14.472656 -49.21875 16.515625 -50.09375 C 18.484375 -50.96875 20.378906 -51.585938 22.203125 -51.953125 Z M 28.984375 -40.796875 C 27.960938 -41.085938 27.050781 -41.234375 26.25 -41.234375 C 25.300781 -41.234375 24.425781 -41.050781 23.625 -40.6875 C 21.289062 -39.59375 19.578125 -37.660156 18.484375 -34.890625 C 17.898438 -33.359375 17.515625 -32.023438 17.328125 -30.890625 C 17.148438 -29.765625 17.0625 -28.125 17.0625 -25.96875 C 17.0625 -23.820312 17.171875 -22.203125 17.390625 -21.109375 C 17.609375 -20.015625 18.046875 -18.8125 18.703125 -17.5 C 20.160156 -14.65625 22.894531 -13.234375 26.90625 -13.234375 C 32.375 -13.234375 36.382812 -15.929688 38.9375 -21.328125 C 39.445312 -22.421875 39.703125 -23.550781 39.703125 -24.71875 C 39.703125 -28 38.828125 -31.171875 37.078125 -34.234375 C 36.566406 -35.179688 35.691406 -36.21875 34.453125 -37.34375 C 33.210938 -38.476562 32.191406 -39.265625 31.390625 -39.703125 C 30.515625 -40.210938 29.710938 -40.578125 28.984375 -40.796875 Z M 28.984375 -40.796875 "/></g></g></g><g fill="#2e3c3f" fill-opacity="1"><g transform="translate(759.021981, 197.093846)"><g><path d="M 22.203125 -51.953125 C 23.003906 -52.097656 24.71875 -52.171875 27.34375 -52.171875 C 29.894531 -52.171875 32.484375 -51.804688 35.109375 -51.078125 C 37.734375 -50.347656 39.554688 -49.765625 40.578125 -49.328125 C 42.472656 -48.304688 44.003906 -46.992188 45.171875 -45.390625 C 46.484375 -43.640625 47.359375 -41.632812 47.796875 -39.375 C 48.160156 -38.207031 48.632812 -36.566406 49.21875 -34.453125 C 50.3125 -30.804688 50.859375 -27.34375 50.859375 -24.0625 C 50.859375 -23.84375 50.859375 -23.625 50.859375 -23.40625 C 50.785156 -19.976562 50.019531 -16.695312 48.5625 -13.5625 C 47.613281 -11.15625 46.082031 -8.894531 43.96875 -6.78125 C 41.195312 -4.007812 37.769531 -2.039062 33.6875 -0.875 C 32.226562 -0.4375 30.1875 -0.21875 27.5625 -0.21875 C 26.976562 -0.21875 26.394531 -0.21875 25.8125 -0.21875 C 22.382812 -0.21875 19.578125 -0.582031 17.390625 -1.3125 C 13.597656 -2.550781 10.5 -4.828125 8.09375 -8.140625 C 5.6875 -11.460938 4.15625 -15.53125 3.5 -20.34375 C 3.351562 -21.289062 3.28125 -22.53125 3.28125 -24.0625 C 3.28125 -24.863281 3.316406 -26.15625 3.390625 -27.9375 C 3.460938 -29.726562 3.644531 -31.351562 3.9375 -32.8125 C 5.320312 -38.570312 7.65625 -43.054688 10.9375 -46.265625 C 12.613281 -47.941406 14.472656 -49.21875 16.515625 -50.09375 C 18.484375 -50.96875 20.378906 -51.585938 22.203125 -51.953125 Z M 28.984375 -40.796875 C 27.960938 -41.085938 27.050781 -41.234375 26.25 -41.234375 C 25.300781 -41.234375 24.425781 -41.050781 23.625 -40.6875 C 21.289062 -39.59375 19.578125 -37.660156 18.484375 -34.890625 C 17.898438 -33.359375 17.515625 -32.023438 17.328125 -30.890625 C 17.148438 -29.765625 17.0625 -28.125 17.0625 -25.96875 C 17.0625 -23.820312 17.171875 -22.203125 17.390625 -21.109375 C 17.609375 -20.015625 18.046875 -18.8125 18.703125 -17.5 C 20.160156 -14.65625 22.894531 -13.234375 26.90625 -13.234375 C 32.375 -13.234375 36.382812 -15.929688 38.9375 -21.328125 C 39.445312 -22.421875 39.703125 -23.550781 39.703125 -24.71875 C 39.703125 -28 38.828125 -31.171875 37.078125 -34.234375 C 36.566406 -35.179688 35.691406 -36.21875 34.453125 -37.34375 C 33.210938 -38.476562 32.191406 -39.265625 31.390625 -39.703125 C 30.515625 -40.210938 29.710938 -40.578125 28.984375 -40.796875 Z M 28.984375 -40.796875 "/></g></g></g><g fill="#2e3c3f" fill-opacity="1"><g transform="translate(813.281423, 197.093846)"><g><path d="M 49.109375 -52.390625 C 50.710938 -52.753906 52.46875 -52.9375 54.375 -52.9375 C 55.320312 -52.9375 56.832031 -52.84375 58.90625 -52.65625 C 60.988281 -52.476562 62.578125 -51.953125 63.671875 -51.078125 C 65.203125 -49.910156 66.347656 -48.46875 67.109375 -46.75 C 67.878906 -45.039062 68.519531 -42.144531 69.03125 -38.0625 C 69.976562 -30.257812 70.597656 -21.984375 70.890625 -13.234375 C 70.890625 -12.429688 70.890625 -11.703125 70.890625 -11.046875 C 70.890625 -8.640625 70.707031 -6.960938 70.34375 -6.015625 C 69.90625 -3.972656 68.882812 -2.40625 67.28125 -1.3125 C 66.476562 -0.65625 65.785156 -0.328125 65.203125 -0.328125 C 65.128906 -0.328125 64.945312 -0.34375 64.65625 -0.375 C 64.363281 -0.414062 63.707031 -0.765625 62.6875 -1.421875 C 60.789062 -3.390625 59.40625 -6.34375 58.53125 -10.28125 C 57.507812 -14.945312 56.632812 -23.078125 55.90625 -34.671875 C 55.6875 -38.460938 55.320312 -40.90625 54.8125 -42 C 54.363281 -42.65625 54.03125 -42.984375 53.8125 -42.984375 C 53.445312 -42.984375 52.296875 -42.523438 50.359375 -41.609375 C 48.429688 -40.703125 46.957031 -39.882812 45.9375 -39.15625 C 46.445312 -38.351562 46.117188 -37.804688 44.953125 -37.515625 C 44.878906 -37.367188 44.734375 -37.257812 44.515625 -37.1875 C 43.421875 -36.75 42.800781 -36.253906 42.65625 -35.703125 C 42.507812 -35.160156 42.4375 -34.234375 42.4375 -32.921875 C 42.4375 -31.828125 42.472656 -30.40625 42.546875 -28.65625 C 42.617188 -27.632812 42.65625 -26.796875 42.65625 -26.140625 C 42.726562 -23.585938 42.765625 -21.21875 42.765625 -19.03125 C 42.765625 -11.882812 42.472656 -7.109375 41.890625 -4.703125 C 41.160156 -1.273438 39.921875 0.4375 38.171875 0.4375 C 38.023438 0.4375 37.878906 0.4375 37.734375 0.4375 C 36.128906 0.21875 34.851562 -0.742188 33.90625 -2.453125 C 32.957031 -4.171875 32.117188 -6.851562 31.390625 -10.5 C 31.097656 -11.738281 30.914062 -16.734375 30.84375 -25.484375 C 30.695312 -34.671875 30.441406 -39.484375 30.078125 -39.921875 C 30.003906 -39.992188 29.894531 -40.03125 29.75 -40.03125 C 29.3125 -40.03125 28.617188 -39.773438 27.671875 -39.265625 C 26.503906 -38.753906 24.753906 -38.003906 22.421875 -37.015625 C 20.085938 -36.035156 18.8125 -35.363281 18.59375 -35 C 18.15625 -34.488281 17.9375 -32.375 17.9375 -28.65625 C 17.9375 -17.9375 17.28125 -10.28125 15.96875 -5.6875 C 15.3125 -3.5 14.671875 -2.078125 14.046875 -1.421875 C 13.429688 -0.765625 12.648438 -0.4375 11.703125 -0.4375 C 10.097656 -0.4375 8.617188 -1.492188 7.265625 -3.609375 C 5.921875 -5.722656 5.066406 -8.382812 4.703125 -11.59375 C 4.554688 -12.832031 4.484375 -14.800781 4.484375 -17.5 C 4.484375 -18.445312 4.5 -20.25 4.53125 -22.90625 C 4.570312 -25.570312 4.628906 -28.035156 4.703125 -30.296875 C 5.066406 -32.773438 5.25 -34.632812 5.25 -35.875 C 5.25 -37.476562 5.46875 -39.265625 5.90625 -41.234375 C 5.976562 -43.566406 6.015625 -45.898438 6.015625 -48.234375 C 6.015625 -50.566406 6.085938 -51.878906 6.234375 -52.171875 C 6.597656 -52.316406 6.890625 -52.390625 7.109375 -52.390625 C 7.328125 -52.390625 7.472656 -52.316406 7.546875 -52.171875 C 7.691406 -51.878906 8.273438 -51.734375 9.296875 -51.734375 C 11.410156 -51.734375 13.523438 -51.078125 15.640625 -49.765625 C 16.515625 -49.253906 17.0625 -49 17.28125 -49 C 17.28125 -49 17.316406 -49 17.390625 -49 C 17.753906 -49 18.484375 -49.289062 19.578125 -49.875 C 23.441406 -50.894531 26.941406 -51.40625 30.078125 -51.40625 C 30.515625 -51.40625 30.953125 -51.40625 31.390625 -51.40625 C 33.140625 -51.40625 34.5625 -51.113281 35.65625 -50.53125 C 36.820312 -49.875 37.84375 -49.21875 38.71875 -48.5625 L 39.703125 -47.359375 L 42.109375 -48.671875 C 44.953125 -50.203125 47.285156 -51.441406 49.109375 -52.390625 Z M 49.109375 -52.390625 "/></g></g></g></svg>