<svg xmlns="http://www.w3.org/2000/svg" xmlns:xlink="http://www.w3.org/1999/xlink" width="500" zoomAndPan="magnify" viewBox="0 0 375 374.999991" height="500" preserveAspectRatio="xMidYMid meet" version="1.0"><defs><clipPath id="0bd915b820"><path d="M 39 15 L 326 15 L 326 374.667969 L 39 374.667969 Z M 39 15 " clip-rule="nonzero"/></clipPath></defs><path fill="#f26d85" d="M 323.765625 92.402344 C 309.875 76.609375 290.125 74.554688 272.507812 77.734375 C 272.429688 76.144531 272.238281 74.515625 271.964844 72.847656 C 266.960938 44.753906 240.808594 15.535156 195.679688 17.746094 C 152.144531 19.921875 130.222656 48.207031 129.136719 66.675781 C 129.058594 67.609375 129.019531 68.578125 129.058594 69.507812 C 121.21875 67.140625 112.488281 66.484375 102.945312 67.53125 C 85.5625 69.433594 72.136719 76.648438 63.054688 88.988281 C 52.65625 103.152344 50.367188 121.621094 52.734375 133.648438 C 55.414062 147.191406 62.824219 172.296875 82.804688 187.972656 C 82.882812 188.050781 82.921875 188.089844 83.039062 188.089844 C 94.992188 216.296875 131.308594 233.796875 156.492188 240.703125 C 167.472656 243.730469 183.691406 246.40625 200.453125 246.40625 C 205.304688 246.40625 210.230469 246.214844 215.042969 245.707031 C 263.816406 240.625 298.195312 220.023438 310.148438 189.019531 C 310.300781 189.019531 310.496094 188.941406 310.652344 188.863281 C 324.542969 180.675781 334.667969 164.535156 337.65625 145.714844 C 340.957031 125.617188 335.871094 106.214844 323.765625 92.402344 Z M 323.765625 92.402344 " fill-opacity="1" fill-rule="nonzero"/><g clip-path="url(#0bd915b820)"><path fill="#2e3c3f" d="M 310.535156 89.957031 C 296.644531 74.125 276.855469 72.148438 259.238281 75.40625 C 259.160156 73.777344 258.96875 72.070312 258.65625 70.285156 C 253.652344 42.308594 227.730469 13.167969 182.605469 15.378906 C 139.222656 17.515625 117.378906 45.722656 116.253906 64.117188 C 116.175781 65.164062 116.175781 66.210938 116.175781 67.257812 C 108.300781 64.8125 99.492188 64.117188 89.867188 65.203125 C 72.523438 67.105469 59.175781 74.28125 50.136719 86.542969 C 39.8125 100.589844 37.523438 118.980469 39.890625 130.972656 C 42.53125 144.511719 49.941406 169.5 69.886719 185.179688 C 69.964844 185.253906 70.039062 185.214844 70.15625 185.253906 C 76.289062 199.804688 88.9375 211.523438 103.253906 220.410156 C 88.78125 224.210938 76.832031 233.914062 69.457031 248.074219 C 61.347656 263.675781 60.183594 282.453125 66.433594 297.082031 C 76.09375 319.742188 93.75 329.597656 126.109375 329.597656 C 130.144531 329.597656 134.375 329.445312 138.875 329.132812 C 145.316406 328.707031 151.914062 327.386719 157.230469 326.339844 C 158.898438 325.988281 160.332031 325.71875 161.613281 325.484375 C 162.078125 325.523438 162.542969 325.5625 162.972656 325.5625 C 163.554688 325.5625 164.097656 325.523438 164.5625 325.484375 C 172.050781 324.59375 177.09375 323.46875 184.429688 315.320312 C 186.175781 313.417969 187.492188 311.050781 188.464844 308.492188 C 188.503906 311.75 188.542969 314.929688 188.464844 317.957031 C 188.269531 328.085938 187.570312 337.628906 186.757812 345.933594 C 184.546875 341.511719 179.382812 337.320312 176.824219 335.613281 C 173.292969 333.285156 168.015625 332.78125 164.289062 334.449219 C 161.613281 335.652344 159.984375 337.824219 159.558594 340.695312 C 159.207031 343.21875 159.945312 345.816406 161.769531 348.222656 C 164.871094 352.335938 170.265625 354.976562 174.03125 355.480469 C 175.234375 355.636719 176.320312 355.710938 177.328125 355.710938 C 181.675781 355.710938 184.429688 354.433594 185.980469 353.269531 C 184.546875 365.492188 183.03125 373.445312 182.992188 373.5625 C 182.875 374.222656 183.304688 374.839844 183.925781 374.957031 C 184.003906 374.957031 184.078125 374.996094 184.15625 374.996094 C 184.738281 374.996094 185.203125 374.609375 185.320312 374.027344 C 185.359375 373.753906 190.25 348.261719 190.832031 317.996094 C 190.871094 316.5625 190.871094 315.046875 190.871094 313.535156 C 192.730469 316.910156 195.71875 319.433594 199.792969 320.90625 C 201.578125 321.566406 203.441406 321.878906 205.265625 321.878906 C 208.136719 321.878906 210.929688 321.101562 213.53125 319.511719 C 214.925781 318.65625 216.246094 317.609375 217.410156 316.367188 C 217.449219 316.367188 217.449219 316.367188 217.488281 316.40625 C 217.722656 316.40625 218.304688 316.523438 219.15625 316.675781 C 222.378906 317.222656 229.710938 318.5 238.90625 318.5 C 244.417969 318.5 250.625 318.035156 256.988281 316.714844 C 277.941406 312.292969 290.164062 298.828125 293.347656 276.632812 C 294.625 267.671875 291.054688 241.363281 260.246094 225.917969 C 275.808594 217.421875 289.816406 204.8125 296.914062 186.1875 C 297.109375 186.1875 297.304688 186.148438 297.457031 186.03125 C 311.3125 177.882812 321.359375 161.820312 324.386719 143.039062 C 327.609375 123.054688 322.5625 103.695312 310.535156 89.957031 Z M 185.28125 350.707031 C 184.738281 351.328125 181.710938 354.160156 174.300781 353.152344 C 171.121094 352.726562 166.347656 350.359375 163.632812 346.828125 C 162.195312 344.925781 161.613281 342.984375 161.886719 341.085938 C 162.195312 339.027344 163.320312 337.515625 165.222656 336.660156 C 166.347656 336.15625 167.742188 335.882812 169.179688 335.882812 C 171.390625 335.882812 173.757812 336.464844 175.464844 337.628906 C 179.035156 339.996094 186.367188 346.476562 185.28125 350.707031 Z M 118.660156 64.230469 C 119.707031 46.695312 140.777344 19.804688 182.722656 17.746094 C 226.296875 15.652344 251.480469 43.707031 256.289062 70.710938 C 256.601562 72.496094 256.792969 74.203125 256.832031 75.871094 C 245.542969 78.277344 235.296875 82.703125 228.351562 86.777344 C 218.304688 92.675781 207.554688 104.78125 208.214844 112.152344 C 208.445312 114.714844 209.960938 116.574219 212.597656 117.585938 C 213.335938 117.855469 214.191406 118.011719 215.121094 118.089844 C 203.636719 122.707031 193.820312 129.496094 185.75 137.335938 C 180.238281 127.828125 173.136719 119.953125 164.988281 115.257812 C 159.128906 111.882812 151.679688 109.707031 143.570312 108.777344 C 145.082031 108.894531 146.402344 108.621094 147.449219 108 C 149.195312 106.953125 150.050781 104.972656 149.894531 102.375 C 149.699219 99.152344 145.394531 86.660156 133.949219 76.960938 C 129.328125 73.078125 124.207031 70.089844 118.582031 68.074219 C 118.582031 66.792969 118.582031 65.511719 118.660156 64.230469 Z M 213.414062 115.296875 C 211.628906 114.636719 210.738281 113.550781 210.582031 111.917969 C 210.078125 106.0625 219.273438 94.847656 229.554688 88.832031 C 236.230469 84.914062 246.007812 80.683594 256.832031 78.316406 C 256.367188 90.382812 249.382812 98.921875 243.019531 104.277344 C 231.882812 113.550781 218.070312 117.003906 213.414062 115.296875 Z M 193.121094 199.535156 C 188.464844 214.746094 179.230469 219.363281 172.75 218.664062 C 165.300781 217.886719 159.90625 210.902344 158.976562 200.816406 C 157.617188 186.304688 166.230469 160.769531 185.242188 141.097656 C 194.75 158.949219 198.550781 181.800781 193.121094 199.535156 Z M 135.035156 102.917969 C 127.46875 98.300781 119.941406 84.992188 118.777344 70.632812 C 123.78125 72.574219 128.320312 75.289062 132.433594 78.742188 C 143.414062 88.019531 147.410156 99.929688 147.566406 102.453125 C 147.683594 104.160156 147.21875 105.285156 146.285156 105.867188 C 144.269531 107.109375 140.078125 105.984375 135.035156 102.917969 Z M 42.21875 130.507812 C 39.96875 119.019531 42.140625 101.40625 52.074219 87.902344 C 60.6875 76.183594 73.492188 69.316406 90.140625 67.492188 C 99.761719 66.445312 108.492188 67.179688 116.292969 69.742188 C 117.183594 84.253906 124.402344 99.230469 133.792969 104.933594 C 137.515625 107.1875 140.738281 108.464844 143.335938 108.699219 C 129.875 107.226562 114.664062 109.085938 102.011719 114.402344 C 89.558594 119.640625 73.570312 130.542969 67.945312 152.621094 C 65.308594 162.945312 65.8125 172.375 68.527344 180.871094 C 51.339844 165.660156 44.664062 143.039062 42.21875 130.507812 Z M 182.605469 313.730469 C 175.660156 321.410156 171.3125 322.265625 164.214844 323.117188 C 163.980469 323.15625 163.707031 323.15625 163.476562 323.15625 C 163.242188 322.964844 162.894531 322.847656 162.542969 322.925781 C 162.234375 322.964844 161.808594 323.042969 161.457031 323.117188 C 158.625 322.808594 155.484375 321.566406 153.347656 319.082031 C 150.4375 315.746094 149.738281 310.78125 151.292969 304.648438 C 153.347656 296.578125 158.46875 292.308594 162.351562 290.136719 C 165.996094 288.121094 170.1875 287.070312 174.183594 287.070312 C 176.320312 287.070312 178.375 287.382812 180.277344 287.964844 C 184.429688 289.285156 186.136719 292.8125 186.875 295.492188 C 188.542969 301.507812 186.71875 309.148438 182.605469 313.730469 Z M 181.015625 285.714844 C 174.921875 283.773438 167.316406 284.667969 161.1875 288.082031 C 159.167969 289.207031 156.839844 290.875 154.746094 293.203125 C 143.261719 299.292969 121.726562 298.050781 113.34375 292.582031 C 108.453125 289.398438 105.3125 284.859375 104.304688 279.429688 C 103.214844 273.683594 104.691406 267.4375 108.378906 262.355469 C 108.765625 261.8125 108.648438 261.074219 108.105469 260.6875 C 107.5625 260.296875 106.824219 260.414062 106.4375 260.957031 C 102.363281 266.585938 100.734375 273.492188 101.9375 279.894531 C 103.0625 285.984375 106.554688 291.066406 112.023438 294.636719 C 117.183594 297.976562 125.800781 299.683594 134.453125 299.683594 C 140.660156 299.683594 146.90625 298.789062 151.953125 297.003906 C 150.75 299.023438 149.699219 301.351562 148.964844 304.105469 C 146.714844 312.835938 149.117188 317.957031 151.523438 320.714844 C 152.882812 322.265625 154.511719 323.390625 156.21875 324.167969 C 151.058594 325.214844 144.734375 326.417969 138.640625 326.84375 C 105.390625 329.054688 80.75 324.710938 68.605469 296.230469 C 62.628906 282.222656 63.753906 264.21875 71.554688 249.238281 C 79.003906 234.960938 91.226562 225.335938 106.050781 222.195312 C 118.621094 229.605469 132.164062 234.84375 143.492188 237.949219 C 153.503906 240.703125 167.859375 243.148438 183.03125 243.574219 C 183.535156 246.910156 186.367188 268.679688 187.765625 291.417969 C 186.175781 288.585938 183.925781 286.644531 181.015625 285.714844 Z M 212.289062 317.53125 C 208.679688 319.703125 204.566406 320.132812 200.609375 318.695312 C 191.375 315.359375 190.402344 306.9375 191.21875 300.417969 C 192.382812 291.183594 198.550781 284.238281 206.933594 282.726562 C 208.992188 282.339844 213.683594 283.464844 217.371094 286.996094 C 219.933594 289.4375 222.765625 293.863281 221.796875 300.886719 C 220.785156 308.453125 217.292969 314.503906 212.289062 317.53125 Z M 258.113281 227.472656 C 288.726562 242.179688 292.257812 267.710938 291.019531 276.285156 C 287.953125 297.664062 276.699219 310.121094 256.523438 314.347656 C 240.03125 317.804688 224.628906 315.164062 219.542969 314.3125 C 219.390625 314.273438 219.3125 314.273438 219.15625 314.234375 C 221.71875 310.742188 223.464844 306.277344 224.160156 301.234375 C 224.859375 296.113281 223.8125 292.230469 222.183594 289.320312 C 223.8125 289.398438 225.480469 289.476562 227.226562 289.476562 C 235.917969 289.476562 245.386719 288.195312 249.617188 282.339844 C 252.488281 278.378906 253.613281 274.113281 252.796875 270 C 251.90625 265.304688 248.570312 260.957031 243.484375 257.738281 C 242.941406 257.386719 242.203125 257.542969 241.816406 258.125 C 241.46875 258.667969 241.621094 259.40625 242.203125 259.792969 C 246.746094 262.664062 249.65625 266.46875 250.429688 270.503906 C 251.089844 273.996094 250.160156 277.527344 247.675781 280.980469 C 242.4375 288.195312 226.023438 287.226562 220.632812 286.917969 C 220.59375 286.917969 220.554688 286.917969 220.515625 286.917969 C 220.050781 286.335938 219.542969 285.792969 219.078125 285.324219 C 214.964844 281.40625 209.574219 279.855469 206.546875 280.398438 C 198.980469 281.792969 193.082031 287.070312 190.328125 294.40625 C 189.9375 287.304688 189.394531 280.203125 188.8125 273.644531 C 189.164062 273.839844 189.550781 273.996094 189.9375 274.113281 C 191.101562 274.5 192.617188 274.773438 194.402344 274.773438 C 197.738281 274.773438 202.007812 273.878906 206.664062 271.394531 C 211.203125 268.988281 213.996094 264.257812 213.296875 260.144531 C 212.792969 257 210.308594 254.867188 206.546875 254.246094 C 200.453125 253.273438 192.886719 258.398438 188.8125 263.75 C 188.542969 264.101562 188.230469 264.527344 187.921875 264.992188 C 186.835938 254.363281 185.785156 246.214844 185.398438 243.496094 C 186.058594 243.496094 186.679688 243.535156 187.339844 243.535156 C 192.1875 243.535156 197.078125 243.304688 201.890625 242.796875 C 214.773438 241.441406 237.316406 237.675781 257.726562 227.160156 C 257.878906 227.316406 257.957031 227.394531 258.113281 227.472656 Z M 190.753906 265.226562 C 194.167969 260.765625 200.222656 256.535156 204.992188 256.535156 C 205.382812 256.535156 205.808594 256.574219 206.15625 256.613281 C 208.914062 257.039062 210.582031 258.398438 210.929688 260.53125 C 211.433594 263.597656 209.105469 267.359375 205.535156 269.261719 C 199.097656 272.675781 193.507812 272.792969 190.714844 271.824219 C 189.667969 271.472656 188.929688 270.929688 188.65625 270.386719 C 188.308594 269.648438 188.8125 267.75 190.753906 265.226562 Z M 201.695312 240.46875 C 180.472656 242.683594 158.003906 239.382812 144.074219 235.582031 C 111.210938 226.539062 58.59375 198.992188 70.273438 153.203125 C 75.667969 132.058594 90.992188 121.660156 102.945312 116.613281 C 113.070312 112.347656 123.859375 110.5625 133.792969 110.5625 C 145.9375 110.5625 156.839844 113.199219 163.824219 117.273438 C 171.78125 121.890625 178.726562 129.652344 184.078125 139.003906 C 164.214844 159.296875 155.210938 185.953125 156.609375 201.046875 C 157.65625 212.300781 163.902344 220.175781 172.515625 221.070312 C 179.964844 221.84375 190.328125 216.839844 195.410156 200.234375 C 201.074219 181.761719 196.960938 157.898438 186.949219 139.390625 C 197.894531 128.644531 212.09375 119.875 229.632812 116.03125 C 252.0625 111.105469 272.429688 116.574219 285.546875 130.972656 C 297.886719 144.550781 301.765625 163.566406 295.90625 181.878906 C 281.355469 227.394531 225.171875 238.027344 201.695312 240.46875 Z M 322.019531 142.691406 C 319.265625 159.839844 310.378906 174.546875 298.15625 182.65625 L 298.15625 182.617188 C 304.289062 163.488281 300.214844 143.582031 287.292969 129.378906 C 274.644531 115.488281 255.589844 109.554688 234.445312 112.734375 C 237.9375 110.910156 241.390625 108.699219 244.53125 106.0625 C 251.402344 100.316406 258.96875 91.003906 259.238281 77.773438 C 276.273438 74.554688 295.402344 76.339844 308.710938 91.511719 C 320.273438 104.742188 325.125 123.367188 322.019531 142.691406 Z M 322.019531 142.691406 " fill-opacity="1" fill-rule="nonzero"/></g><path fill="#2e3c3f" d="M 191.335938 96.4375 C 191.644531 96.671875 191.957031 96.863281 192.265625 97.019531 C 191.761719 105.59375 190.871094 114.171875 189.628906 122.628906 C 189.550781 123.289062 189.976562 123.910156 190.636719 123.988281 C 190.714844 123.988281 190.753906 123.988281 190.832031 123.988281 C 191.414062 123.988281 191.917969 123.558594 192.035156 122.976562 C 193.277344 114.597656 194.167969 106.097656 194.671875 97.601562 C 195.097656 97.640625 195.566406 97.601562 196.03125 97.523438 C 197.738281 97.214844 199.171875 96.28125 200.066406 94.964844 C 200.414062 94.421875 200.261719 93.683594 199.714844 93.292969 C 199.171875 92.945312 198.4375 93.101562 198.046875 93.644531 C 197.542969 94.421875 196.652344 94.964844 195.605469 95.15625 C 195.332031 95.195312 195.058594 95.234375 194.789062 95.234375 C 194.867188 93.488281 194.945312 91.703125 195.023438 89.957031 C 195.097656 87.707031 194.128906 86.929688 193.351562 86.660156 C 192.34375 86.308594 191.257812 86.738281 190.402344 87.746094 C 189.355469 88.949219 188.890625 90.617188 189.085938 92.324219 C 189.203125 93.992188 190.054688 95.507812 191.335938 96.4375 Z M 192.1875 89.21875 C 192.34375 89.027344 192.5 88.949219 192.5 88.871094 C 192.539062 88.988281 192.617188 89.257812 192.617188 89.839844 C 192.578125 91.316406 192.5 92.789062 192.421875 94.226562 C 191.878906 93.683594 191.492188 92.867188 191.414062 91.976562 C 191.296875 90.964844 191.566406 89.957031 192.1875 89.21875 Z M 192.1875 89.21875 " fill-opacity="1" fill-rule="nonzero"/><path fill="#2e3c3f" d="M 177.40625 78.859375 C 176.359375 79.132812 175.542969 80.0625 175.273438 81.34375 C 174.921875 83.167969 175.660156 85.144531 177.132812 86.273438 C 177.714844 86.738281 178.453125 87.046875 179.191406 87.203125 C 179.964844 96.75 179.382812 106.410156 178.839844 115.800781 C 178.800781 116.460938 179.308594 117.042969 179.964844 117.082031 C 180.003906 117.082031 180.003906 117.082031 180.042969 117.082031 C 180.664062 117.082031 181.207031 116.574219 181.246094 115.957031 C 181.789062 106.488281 182.371094 96.785156 181.636719 87.125 C 181.90625 87.046875 182.179688 86.929688 182.410156 86.816406 C 183.265625 86.386719 183.886719 85.765625 184.46875 85.222656 C 184.855469 84.875 185.242188 84.488281 185.671875 84.214844 C 186.214844 83.867188 186.40625 83.128906 186.019531 82.546875 C 185.671875 82.003906 184.933594 81.847656 184.351562 82.199219 C 183.769531 82.546875 183.304688 83.011719 182.800781 83.476562 C 182.292969 83.945312 181.867188 84.371094 181.363281 84.640625 C 181.285156 83.980469 181.207031 83.324219 181.128906 82.664062 C 180.976562 81.5 180.433594 79.984375 179.382812 79.25 C 178.765625 78.820312 178.105469 78.707031 177.40625 78.859375 Z M 178.570312 84.371094 C 177.832031 83.789062 177.445312 82.742188 177.601562 81.808594 C 177.675781 81.421875 177.871094 81.1875 177.949219 81.1875 C 178.144531 81.265625 178.570312 81.964844 178.6875 82.933594 C 178.765625 83.476562 178.800781 84.019531 178.878906 84.5625 C 178.800781 84.527344 178.6875 84.449219 178.570312 84.371094 Z M 178.570312 84.371094 " fill-opacity="1" fill-rule="nonzero"/><path fill="#2e3c3f" d="M 204.101562 97.367188 C 202.78125 100.785156 201.460938 104.316406 200.492188 107.960938 C 200.335938 108.582031 200.726562 109.242188 201.347656 109.4375 C 201.460938 109.476562 201.539062 109.476562 201.65625 109.476562 C 202.199219 109.476562 202.664062 109.125 202.820312 108.582031 C 203.753906 105.089844 205.070312 101.597656 206.351562 98.261719 C 207.128906 96.242188 207.902344 94.226562 208.601562 92.167969 C 209.574219 89.335938 210.699219 85.613281 211.125 81.539062 C 211.394531 81.539062 211.667969 81.539062 211.9375 81.5 C 214.925781 81.035156 216.519531 78.160156 217.683594 75.445312 C 217.953125 74.824219 217.644531 74.125 217.0625 73.894531 C 216.441406 73.621094 215.742188 73.933594 215.507812 74.515625 C 214.617188 76.648438 213.453125 78.820312 211.628906 79.132812 C 211.550781 79.132812 211.472656 79.171875 211.355469 79.171875 C 211.394531 77.617188 211.355469 76.066406 211.125 74.476562 C 211.046875 74.011719 210.773438 72.496094 209.6875 71.722656 C 209.183594 71.371094 208.601562 71.214844 207.980469 71.332031 C 206.933594 71.527344 206.15625 72.378906 205.847656 73.738281 C 205.382812 75.679688 205.730469 77.65625 206.777344 79.171875 C 207.320312 79.945312 208.019531 80.527344 208.835938 80.957031 C 208.445312 84.914062 207.320312 88.636719 206.390625 91.433594 C 205.613281 93.371094 204.839844 95.351562 204.101562 97.367188 Z M 208.640625 77.734375 C 207.980469 76.804688 207.789062 75.484375 208.097656 74.203125 C 208.175781 73.894531 208.292969 73.699219 208.253906 73.621094 C 208.371094 73.777344 208.601562 74.164062 208.679688 74.707031 C 208.835938 75.796875 208.914062 76.882812 208.914062 78.007812 C 208.796875 77.929688 208.71875 77.8125 208.640625 77.734375 Z M 208.640625 77.734375 " fill-opacity="1" fill-rule="nonzero"/><path fill="#2e3c3f" d="M 193.742188 72.730469 C 193.46875 75.988281 192.847656 79.171875 191.917969 82.273438 C 191.722656 82.894531 192.074219 83.554688 192.730469 83.75 C 192.847656 83.789062 192.964844 83.789062 193.082031 83.789062 C 193.585938 83.789062 194.089844 83.4375 194.246094 82.933594 C 195.292969 79.363281 195.953125 75.71875 196.222656 71.992188 C 197.039062 71.371094 197.542969 70.441406 197.933594 69.625 L 198.242188 69.042969 C 198.980469 67.761719 200.105469 66.675781 201.386719 65.976562 C 201.96875 65.667969 202.199219 64.929688 201.890625 64.347656 C 201.578125 63.765625 200.84375 63.574219 200.261719 63.84375 C 198.589844 64.738281 197.15625 66.132812 196.1875 67.761719 C 196.109375 67.453125 196.03125 67.140625 195.875 66.871094 C 195.292969 65.667969 194.089844 64.929688 192.925781 65.125 C 191.761719 65.28125 190.832031 66.289062 190.480469 67.648438 C 190.171875 69.003906 190.480469 70.402344 191.296875 71.371094 C 191.957031 72.1875 192.847656 72.652344 193.742188 72.730469 Z M 192.847656 68.269531 C 192.925781 67.878906 193.160156 67.609375 193.277344 67.570312 C 193.351562 67.570312 193.585938 67.722656 193.703125 67.957031 C 193.894531 68.382812 193.894531 68.964844 193.894531 69.546875 C 193.894531 69.820312 193.894531 70.050781 193.859375 70.324219 C 193.585938 70.246094 193.3125 70.128906 193.160156 69.898438 C 192.808594 69.507812 192.695312 68.886719 192.847656 68.269531 Z M 192.847656 68.269531 " fill-opacity="1" fill-rule="nonzero"/><path fill="#2e3c3f" d="M 169.683594 75.949219 C 169.839844 77.269531 169.957031 78.589844 170.035156 79.871094 L 172.128906 107.261719 C 172.167969 107.882812 172.710938 108.390625 173.332031 108.390625 C 173.371094 108.390625 173.410156 108.390625 173.410156 108.390625 C 174.070312 108.351562 174.574219 107.769531 174.496094 107.109375 L 172.398438 79.714844 C 172.324219 78.472656 172.207031 77.230469 172.050781 75.949219 C 174.300781 75.601562 176.398438 74.28125 177.871094 72.304688 C 179.421875 70.246094 180.082031 67.6875 179.65625 65.359375 C 179.539062 64.699219 178.957031 64.269531 178.257812 64.386719 C 177.601562 64.503906 177.171875 65.125 177.289062 65.785156 C 177.601562 67.492188 177.09375 69.355469 175.929688 70.867188 C 174.84375 72.34375 173.292969 73.3125 171.703125 73.582031 C 171.507812 72.574219 171.3125 71.605469 171.003906 70.632812 C 170.460938 68.886719 169.488281 68.382812 168.792969 68.269531 C 168.25 68.191406 167.667969 68.34375 167.125 68.65625 C 166.308594 69.160156 165.765625 70.050781 165.648438 71.0625 C 165.492188 72.265625 165.84375 73.46875 166.617188 74.359375 C 167.394531 75.214844 168.441406 75.757812 169.683594 75.949219 Z M 168.441406 70.597656 C 168.441406 70.597656 168.597656 70.710938 168.792969 71.292969 C 168.984375 71.953125 169.179688 72.652344 169.296875 73.351562 C 168.945312 73.195312 168.675781 73 168.441406 72.769531 C 168.132812 72.417969 167.976562 71.914062 168.054688 71.410156 C 168.054688 71.214844 168.171875 70.867188 168.441406 70.597656 Z M 168.441406 70.597656 " fill-opacity="1" fill-rule="nonzero"/></svg>