<svg width="69" height="22" viewBox="0 0 69 22" fill="none" xmlns="http://www.w3.org/2000/svg">
<path d="M7.49251 16L4.5767 10.7076H3.75787V16H0.342781V1.98015H6.07454C7.17962 1.98015 8.11827 2.1732 8.8905 2.55932C9.67604 2.94543 10.2619 3.47799 10.648 4.15702C11.0341 4.82273 11.2271 5.56832 11.2271 6.3938C11.2271 7.3258 10.9609 8.15794 10.4283 8.89022C9.90903 9.6225 9.13681 10.1418 8.11162 10.448L11.347 16H7.49251ZM3.75787 8.29108H5.87483C6.5006 8.29108 6.9666 8.13797 7.27282 7.83174C7.59236 7.52551 7.75213 7.0928 7.75213 6.5336C7.75213 6.00104 7.59236 5.58164 7.27282 5.27541C6.9666 4.96919 6.5006 4.81607 5.87483 4.81607H3.75787V8.29108ZM18.4436 16.1598C17.3519 16.1598 16.3666 15.9268 15.4879 15.4608C14.6225 14.9948 13.9368 14.3291 13.4308 13.4636C12.9382 12.5982 12.6919 11.5863 12.6919 10.428C12.6919 9.28299 12.9449 8.27776 13.4508 7.41234C13.9568 6.5336 14.6491 5.86124 15.5278 5.39524C16.4066 4.92924 17.3918 4.69624 18.4836 4.69624C19.5753 4.69624 20.5606 4.92924 21.4393 5.39524C22.3181 5.86124 23.0104 6.5336 23.5164 7.41234C24.0223 8.27776 24.2753 9.28299 24.2753 10.428C24.2753 11.573 24.0156 12.5849 23.4964 13.4636C22.9904 14.3291 22.2914 14.9948 21.3994 15.4608C20.5207 15.9268 19.5354 16.1598 18.4436 16.1598ZM18.4436 13.204C19.096 13.204 19.6486 12.9644 20.1013 12.4851C20.5673 12.0057 20.8003 11.3201 20.8003 10.428C20.8003 9.53596 20.5739 8.85027 20.1212 8.37096C19.6819 7.89165 19.136 7.652 18.4836 7.652C17.8179 7.652 17.2653 7.89165 16.826 8.37096C16.3866 8.83696 16.1669 9.52264 16.1669 10.428C16.1669 11.3201 16.3799 12.0057 16.806 12.4851C17.2454 12.9644 17.7912 13.204 18.4436 13.204ZM29.5021 1.22124V16H26.087V1.22124H29.5021ZM35.3921 1.22124V16H31.977V1.22124H35.3921ZM39.5845 3.69768C38.9854 3.69768 38.4927 3.52459 38.1066 3.17843C37.7338 2.81894 37.5474 2.37957 37.5474 1.86032C37.5474 1.32775 37.7338 0.888384 38.1066 0.542214C38.4927 0.182731 38.9854 0.00298896 39.5845 0.00298896C40.1703 0.00298896 40.6496 0.182731 41.0224 0.542214C41.4086 0.888384 41.6016 1.32775 41.6016 1.86032C41.6016 2.37957 41.4086 2.81894 41.0224 3.17843C40.6496 3.52459 40.1703 3.69768 39.5845 3.69768ZM41.2821 4.85602V16H37.867V4.85602H41.2821ZM50.5472 4.73619C51.852 4.73619 52.8905 5.16224 53.6627 6.01435C54.4483 6.85315 54.841 8.01148 54.841 9.48936V16H51.4459V9.9487C51.4459 9.2031 51.2528 8.62393 50.8667 8.21119C50.4806 7.79845 49.9614 7.59208 49.309 7.59208C48.6566 7.59208 48.1373 7.79845 47.7512 8.21119C47.3651 8.62393 47.172 9.2031 47.172 9.9487V16H43.757V4.85602H47.172V6.33389C47.5182 5.84127 47.9842 5.45515 48.57 5.17556C49.1559 4.88264 49.8149 4.73619 50.5472 4.73619ZM61.4481 4.69624C62.2336 4.69624 62.9193 4.85601 63.5051 5.17556C64.1043 5.4951 64.5636 5.91449 64.8832 6.43375V4.85602H68.2982V15.98C68.2982 17.0052 68.0919 17.9306 67.6791 18.756C67.2797 19.5948 66.6606 20.2605 65.8218 20.7532C64.9963 21.2458 63.9645 21.4921 62.7263 21.4921C61.0753 21.4921 59.7372 21.0993 58.712 20.3138C57.6868 19.5416 57.101 18.4898 56.9545 17.1583H60.3297C60.4362 17.5844 60.6892 17.9172 61.0886 18.1569C61.488 18.4099 61.9807 18.5364 62.5665 18.5364C63.2721 18.5364 63.8313 18.33 64.2441 17.9172C64.6701 17.5178 64.8832 16.8721 64.8832 15.98V14.4023C64.5503 14.9215 64.091 15.3476 63.5051 15.6805C62.9193 16 62.2336 16.1598 61.4481 16.1598C60.5294 16.1598 59.6973 15.9268 58.9517 15.4608C58.2061 14.9815 57.6136 14.3091 57.1742 13.4437C56.7482 12.5649 56.5351 11.5531 56.5351 10.408C56.5351 9.26302 56.7482 8.25779 57.1742 7.39237C57.6136 6.52695 58.2061 5.86124 58.9517 5.39524C59.6973 4.92924 60.5294 4.69624 61.4481 4.69624ZM64.8832 10.428C64.8832 9.5759 64.6435 8.90353 64.1642 8.41091C63.6982 7.91828 63.1257 7.67197 62.4467 7.67197C61.7676 7.67197 61.1885 7.91828 60.7092 8.41091C60.2432 8.89022 60.0102 9.55593 60.0102 10.408C60.0102 11.2601 60.2432 11.9392 60.7092 12.4451C61.1885 12.9377 61.7676 13.184 62.4467 13.184C63.1257 13.184 63.6982 12.9377 64.1642 12.4451C64.6435 11.9525 64.8832 11.2801 64.8832 10.428Z" fill="#4A494F"/>
</svg>
